<svg xmlns="http://www.w3.org/2000/svg" width="18.058" height="18.055" viewBox="0 0 18.058 18.055">
    <path data-name="instagram-brands" d="M8.956 36.223a4.629 4.629 0 1 0 4.629 4.629 4.622 4.622 0 0 0-4.629-4.629zm0 7.638a3.009 3.009 0 1 1 3.009-3.009 3.015 3.015 0 0 1-3.009 3.009zm5.9-7.828a1.08 1.08 0 1 1-1.08-1.08 1.077 1.077 0 0 1 1.078 1.081zm3.066 1.1a5.343 5.343 0 0 0-1.458-3.783 5.378 5.378 0 0 0-3.783-1.458c-1.491-.085-5.958-.085-7.449 0a5.37 5.37 0 0 0-3.783 1.454 5.361 5.361 0 0 0-1.461 3.78c-.085 1.491-.085 5.958 0 7.449a5.343 5.343 0 0 0 1.458 3.783 5.385 5.385 0 0 0 3.784 1.458c1.491.085 5.958.085 7.449 0a5.343 5.343 0 0 0 3.783-1.458 5.378 5.378 0 0 0 1.458-3.783c.08-1.491.08-5.955 0-7.445zm-1.926 9.044a3.047 3.047 0 0 1-1.716 1.716c-1.188.471-4.008.363-5.322.363s-4.137.1-5.322-.363a3.047 3.047 0 0 1-1.716-1.716c-.471-1.188-.363-4.008-.363-5.322s-.1-4.137.363-5.322a3.047 3.047 0 0 1 1.716-1.716c1.188-.471 4.008-.363 5.322-.363s4.137-.1 5.322.363a3.047 3.047 0 0 1 1.716 1.716c.471 1.188.363 4.008.363 5.322s.107 4.135-.365 5.319z" transform="translate(.075 -31.825)" style="fill:#d6dee0"/>
</svg>
