<svg xmlns="http://www.w3.org/2000/svg" width="18.107" height="18.107" viewBox="0 0 18.107 18.107">
    <path d="M16.814 32H1.289A1.3 1.3 0 0 0 0 33.306V48.8a1.3 1.3 0 0 0 1.289 1.306h15.525a1.3 1.3 0 0 0 1.293-1.306V33.3a1.3 1.3 0 0 0-1.293-1.3zM5.473 47.521H2.789v-8.642h2.688v8.641zM4.131 37.7a1.556 1.556 0 1 1 1.556-1.556A1.557 1.557 0 0 1 4.131 37.7zm11.4 9.822h-2.682v-4.2c0-1-.02-2.292-1.394-2.292-1.4 0-1.613 1.091-1.613 2.219v4.276H7.158v-8.646h2.575v1.18h.036a2.827 2.827 0 0 1 2.542-1.394c2.716 0 3.221 1.791 3.221 4.119z" transform="translate(0 -32)" style="fill:#d6dee0"/>
</svg>
