<svg xmlns="http://www.w3.org/2000/svg" width="19.205" height="18.171" viewBox="0 0 19.205 18.171">
    <path d="M19.159 29.576c-.2.459-1.022.8-2.527 1.031a7.117 7.117 0 0 0-.244.9.435.435 0 0 1-.455.335h-.011c-.352 0-.72-.163-1.457-.163a2.957 2.957 0 0 0-2.11.777 4.209 4.209 0 0 1-2.777 1.034 4.293 4.293 0 0 1-2.733-1.03 2.954 2.954 0 0 0-2.11-.777 14.081 14.081 0 0 0-1.457.178.446.446 0 0 1-.466-.341 7.028 7.028 0 0 0-.245-.911C1.792 30.488.043 30.181 0 29.4a.4.4 0 0 1 .333-.418c2.61-.432 3.786-3.13 3.834-3.244l.009-.019a.863.863 0 0 0 .092-.708c-.189-.449-1.008-.61-1.352-.747-.89-.354-1.013-.76-.961-1.038a.964.964 0 0 1 1.238-.583 2.136 2.136 0 0 0 .883.238.762.762 0 0 0 .374-.082c-.077-1.357-.266-3.3.213-4.378a5.105 5.105 0 0 1 4.744-3.081h.379a5.073 5.073 0 0 1 4.753 3.082c.479 1.082.291 3.012.214 4.379a.731.731 0 0 0 .323.081 2.23 2.23 0 0 0 .828-.236 1.009 1.009 0 0 1 .768 0 .783.783 0 0 1 .585.675c.007.368-.32.686-.971.944-.079.032-.176.062-.279.1-.367.117-.923.295-1.073.652a.862.862 0 0 0 .092.708l.009.019c.049.114 1.223 2.811 3.835 3.244a.412.412 0 0 1 .289.588z" transform="translate(.002 -15.331)" style="fill:#d6dee0"/>
</svg>
