<svg xmlns="http://www.w3.org/2000/svg" width="21.89" height="18.221" viewBox="0 0 21.89 18.221">
    <path d="M19.64 52.623c.014.2.014.4.014.6C19.654 59.3 15.14 66.3 6.889 66.3A12.456 12.456 0 0 1 0 64.239a9.058 9.058 0 0 0 1.083.057 8.847 8.847 0 0 0 5.57-1.964 4.51 4.51 0 0 1-4.195-3.189 5.523 5.523 0 0 0 .847.071 4.637 4.637 0 0 0 1.181-.157 4.572 4.572 0 0 1-3.6-4.512v-.057a4.436 4.436 0 0 0 2.028.584 4.681 4.681 0 0 1-1.389-6.149 12.653 12.653 0 0 0 9.25 4.811 5.314 5.314 0 0 1-.111-1.053 4.541 4.541 0 0 1 4.486-4.6 4.426 4.426 0 0 1 3.278 1.452 8.7 8.7 0 0 0 2.847-1.11 4.567 4.567 0 0 1-1.972 2.534 8.823 8.823 0 0 0 2.583-.712 9.778 9.778 0 0 1-2.25 2.377z" transform="translate(0 -48.082)" style="fill:#d6dee0"/>
</svg>
