<svg xmlns="http://www.w3.org/2000/svg" width="25.678" height="18.055" viewBox="0 0 25.678 18.055">
    <path data-name="youtube-brands" d="M40.074 66.825A3.226 3.226 0 0 0 37.8 64.54C35.8 64 27.772 64 27.772 64s-8.03 0-10.032.54a3.227 3.227 0 0 0-2.27 2.285 36.328 36.328 0 0 0 0 12.441 3.178 3.178 0 0 0 2.27 2.248c2 .54 10.032.54 10.032.54s8.03 0 10.032-.54a3.178 3.178 0 0 0 2.27-2.248 36.328 36.328 0 0 0 0-12.441zM25.146 76.864v-7.636l6.711 3.818z" transform="translate(-14.933 -64)" style="fill:#d6dee0"/>
</svg>
