<svg xmlns="http://www.w3.org/2000/svg" width="38.398" height="13.472" viewBox="0 0 38.398 13.472">
    <defs>
        <clipPath id="18r23d6b1a">
            <path data-name="Path 47" d="M378.157 466.6c-.054-.808-.16-1.481-.913-1.481-.419.353-.488 1.834-.515 2.009l-.021.4-.23 10.091c0 .432.177.563.468.635l.419.036a3.643 3.643 0 0 0 .638-.072c.116-.031.17-.3.154-.515v-1.258l-.005-7.351h.023v-1.382s.005-.764-.018-1.112z" transform="translate(-376.478 -465.12)" style="fill:none"/>
        </clipPath>
    </defs>
    <g data-name="Group 21" style="isolation:isolate">
        <g data-name="Group 20">
            <path data-name="Path 18" d="M315.617 494.6c0-.134-.013-.257-.021-.391a6.069 6.069 0 0 1-1.667-.219v.137l.018 3.917.093 1.188c.09.422.6.437.787.437a.834.834 0 0 0 .922-.646l-.057-1.433z" transform="translate(-312.997 -486.407)" style="fill:#fff"/>
            <path data-name="Path 19" d="M353.113 489.745c.085 1.382.2 3.6.373 5.17.036.332 0 .962-1.088.962-.723 0-1.168-.347-1.1-1.108.067-.717.568-5.659.614-5.87.015-.077.049-.108.144-.108.867.014.995.342 1.057.954z" transform="translate(-340.749 -482.545)" style="fill:#fff"/>
            <path data-name="Path 20" d="M422.958 478.817c-1.843 0-5.435-1.16-5.435-3.29 0-1.63 1.641-2.374 3.166-2.374a4.114 4.114 0 0 1 3.687 1.6l.023.026v.034c0 .419-.584.677-1 .677a.715.715 0 0 1-.435-.124 4.055 4.055 0 0 0-2.829-1.165c-.664 0-1.777.162-1.777 1.258 0 1.286 3.161 1.885 3.943 1.885 3.434 0 4.185-2.256 4.185-3.125 0-1.8-1.955-1.95-4.025-2.109-2.156-.164-4.373-.334-4.373-2.472 0-2.644 3.31-3.858 6.387-3.858a3.358 3.358 0 0 1 3.087 1.582.574.574 0 0 1 .082.314c0 .651-.931 1.188-1.407 1.188l-.124-.021a.134.134 0 0 1-.121-.131.126.126 0 0 1 .046-.1l.018-.023a1.238 1.238 0 0 0 .322-.587.176.176 0 0 0 0-.059 4.153 4.153 0 0 0-2.547-.571c-1.577 0-3.923.584-3.923 2.191 0 1.093 1.417 1.209 3.058 1.342 2.353.2 5.281.432 5.281 3.712-.013 3.207-3.882 4.2-5.289 4.2z" transform="translate(-389.942 -465.454)" style="fill:#fff"/>
            <path data-name="Path 21" d="M424.155 465.628a3.226 3.226 0 0 1 3.007 1.528.514.514 0 0 1 .069.27c0 .579-.879 1.088-1.3 1.088l-.105-.018a.034.034 0 0 1-.034-.034c0-.018 0-.018.015-.034a1.365 1.365 0 0 0 .37-.679.213.213 0 0 0-.018-.1 4 4 0 0 0-2.639-.627c-1.479 0-4.028.528-4.028 2.292 0 2.829 8.339-.425 8.339 5.054 0 3.02-3.624 4.09-5.173 4.09-1.723 0-5.33-1.1-5.33-3.19 0-1.63 1.706-2.274 3.061-2.274a4.038 4.038 0 0 1 3.6 1.561c0 .339-.515.579-.9.579a.621.621 0 0 1-.368-.1 4.148 4.148 0 0 0-2.9-1.188c-.826 0-1.883.257-1.883 1.358 0 1.407 3.308 1.986 4.049 1.986 3.393 0 4.29-2.174 4.29-3.226 0-3.835-8.408-.543-8.408-4.581 0-2.511 3.184-3.75 6.282-3.75m0-.2c-3.125 0-6.492 1.235-6.492 3.948 0 2.227 2.381 2.413 4.481 2.572 2.021.154 3.931.3 3.931 2.009 0 .845-.733 3.025-4.082 3.025-.736 0-3.84-.6-3.84-1.785 0-1.008 1.049-1.157 1.674-1.157a3.972 3.972 0 0 1 2.765 1.134.821.821 0 0 0 .515.154c.452 0 1.108-.278 1.108-.768v-.065l-.044-.054a4.241 4.241 0 0 0-3.773-1.641c-1.577 0-3.272.768-3.272 2.475 0 2.191 3.663 3.39 5.54 3.39 1.438 0 5.382-1.029 5.382-4.29 0-3.369-2.978-3.614-5.376-3.809-1.836-.154-2.966-.29-2.966-1.245 0-1.544 2.286-2.091 3.82-2.091a4.443 4.443 0 0 1 2.448.515v.023a1.132 1.132 0 0 1-.3.514l-.018.023a.219.219 0 0 0-.069.164.242.242 0 0 0 .219.23l.1.015h.034c.515 0 1.51-.581 1.51-1.286a.693.693 0 0 0-.1-.363 3.5 3.5 0 0 0-3.19-1.634z" transform="translate(-389.644 -465.193)" style="fill:#fff"/>
            <path data-name="Path 22" d="M356.031 466.655c-2.1-.177-4.2.061-4.2 1.054 0 .214.427.419.784.419.18 0 .33-.015.393-.015a.2.2 0 0 0 .065-.134.17.17 0 0 0-.077-.134c-.067-.034-.623-.1-.623-.216 0-.065.1-.131.376-.2a5.3 5.3 0 0 1 1.34-.149 19.047 19.047 0 0 1 5.9 1.129c3.007.949 6.366 3.773 6.366 5.97 0 2.951-3.67 3.418-5.466 3.325a12.316 12.316 0 0 1-3.1-.492s1 .581 1.029 1.286a4.887 4.887 0 0 0 2.938.584c2.976 0 6.173-1.441 6.173-4.46.007-3.422-4.48-7.347-11.898-7.967z" transform="translate(-341.149 -466.063)" style="fill:#fff"/>
            <path data-name="Path 23" d="M352.075 478.285a1.286 1.286 0 1 1 1.338-1.285 1.306 1.306 0 0 1-1.338 1.286zm0-1.945a.669.669 0 1 0 .7.669.687.687 0 0 0-.7-.669z" transform="translate(-340.413 -472.832)" style="fill:#fff"/>
            <path data-name="Path 24" d="m417.84 467.734 1.237 1.178c.206.2.355.188.515.038l1.322-1.26s-1.142.967-1.338 1.124-.324.113-.5-.051a85.383 85.383 0 0 0-1.236-1.029z" transform="translate(-390.179 -466.872)" style="fill:#fff"/>
            <path data-name="Path 25" d="m417.309 468.24 1.235 1.178c.206.2.2.339.041.488l-1.325 1.258s1.016-1.085 1.184-1.273.116-.307-.057-.473a124.24 124.24 0 0 1-1.078-1.178z" transform="translate(-389.748 -467.281)" style="fill:#fff"/>
            <path data-name="Path 26" d="M425.979 471.012s-1.029-.982-1.237-1.176-.2-.339-.038-.488l1.322-1.258s-1.016 1.085-1.18 1.286-.118.307.057.473c.097.085 1.076 1.163 1.076 1.163z" transform="translate(-395.187 -467.169)" style="fill:#fff"/>
            <path data-name="Path 27" d="M420.741 476s-1.029-.98-1.235-1.178-.355-.185-.515-.036l-1.322 1.26s1.14-.97 1.338-1.127.322-.111.5.051c.106.101 1.234 1.03 1.234 1.03z" transform="translate(-390.053 -472.059)" style="fill:#fff"/>
            <g data-name="Group 18">
                <path data-name="Path 28" d="M420.7 469.076a1.543 1.543 0 1 0-1.543 1.459 1.5 1.5 0 0 0 1.543-1.459z" transform="translate(-390.014 -466.694)" style="fill:#fff"/>
            </g>
            <path data-name="Path 29" d="M375.962 466.77s-.345.085-.684.162-.257.314-.17.422l.816-.2z" transform="translate(-358.381 -466.189)" style="fill:#fff"/>
            <path data-name="Path 30" d="M375.809 468.26s-.342.087-.684.164-.257.314-.17.422l.816-.2z" transform="translate(-358.267 -467.295)" style="fill:#fff"/>
            <path data-name="Path 31" d="M375.653 469.77s-.345.085-.687.162-.257.316-.167.422l.813-.2z" transform="translate(-358.15 -468.417)" style="fill:#fff"/>
            <path data-name="Path 32" d="m375.506 471.28-.682.162c-.342.077-.257.314-.17.422l.813-.2z" transform="translate(-358.045 -469.539)" style="fill:#fff"/>
            <path data-name="Path 33" d="M375.309 472.78s-.342.085-.684.162-.257.314-.17.422l.816-.2z" transform="translate(-357.895 -470.653)" style="fill:#fff"/>
            <path data-name="Path 34" d="M375.2 474.28s-.342.085-.684.162-.257.314-.17.422l.813-.2z" transform="translate(-357.814 -471.767)" style="fill:#fff"/>
            <path data-name="Path 35" d="M375.047 475.78s-.339.085-.682.164-.257.314-.17.419l.816-.2z" transform="translate(-357.703 -472.881)" style="fill:#fff"/>
            <path data-name="Path 36" d="m64.13 13.908.808.162.008-.36" transform="translate(-47.638 -10.425)" style="fill:#fff"/>
            <path data-name="Path 37" d="M377.628 466.837s.121.131-.128.406l.2-.046.044-.384z" transform="translate(-360.215 -466.219)" style="mix-blend-mode:multiply;opacity:.65;fill:#fff;isolation:isolate"/>
            <path data-name="Path 38" d="M377.481 468.338s.118.136-.131.409l.2-.049.044-.389z" transform="translate(-360.103 -467.333)" style="mix-blend-mode:multiply;opacity:.65;fill:#fff;isolation:isolate"/>
            <path data-name="Path 39" d="M377.326 469.851s.124.124-.116.4l.2-.046.038-.384z" transform="translate(-359.999 -468.455)" style="mix-blend-mode:multiply;opacity:.65;fill:#fff;isolation:isolate"/>
            <path data-name="Path 40" d="M377.206 471.349s.124.126-.116.406l.193-.049.038-.384z" transform="translate(-359.91 -469.569)" style="mix-blend-mode:multiply;opacity:.65;fill:#fff;isolation:isolate"/>
            <path data-name="Path 41" d="M377.052 472.848s.124.131-.121.4l.2-.044.034-.389z" transform="translate(-359.792 -470.683)" style="mix-blend-mode:multiply;opacity:.65;fill:#fff;isolation:isolate"/>
            <path data-name="Path 42" d="M376.918 474.356s.124.131-.118.406l.206-.049.028-.384z" transform="translate(-359.695 -471.804)" style="mix-blend-mode:multiply;opacity:.65;fill:#fff;isolation:isolate"/>
            <path data-name="Path 43" d="M376.811 475.847s.126.131-.121.406l.2-.046.034-.384z" transform="translate(-359.614 -472.912)" style="mix-blend-mode:multiply;opacity:.65;fill:#fff;isolation:isolate"/>
            <path data-name="Path 44" d="M376.69 477.374s.149.023.134.124l.057-.167z" transform="translate(-359.614 -474.033)" style="opacity:.8;mix-blend-mode:multiply;fill:#fff;isolation:isolate"/>
            <path data-name="Path 45" d="M378.148 466.591c-.054-.808-.191-1.544-.913-1.481-.419.353-.488 1.834-.515 2.009l-.021.4-.23 10.091a.589.589 0 0 0 .468.635l.419.036a3.639 3.639 0 0 0 .638-.072c.077-.257.121-.4.154-.515v-1.254l-.005-7.351h.023v-1.382s.005-.762-.018-1.116z" transform="translate(-359.448 -464.953)" style="fill:#fff"/>
            <g data-name="Group 19" transform="translate(17.021 .157)" style="clip-path:url(#18r23d6b1a)">
                <path data-name="Path 46" d="M380.5 465.45a3.247 3.247 0 0 0-.429-1.88 10.67 10.67 0 0 0-.334 2.408v.4l-.121 10.091c0 .437.088.62.239.671h.237a1.749 1.749 0 0 0 .432-.093 3.321 3.321 0 0 0 0-.515v-8.6h.013v-1.382s-.022-.75-.037-1.1z" transform="translate(-378.811 -463.969)" style="fill:#fff"/>
            </g>
            <path data-name="Path 48" d="M363.95 500.321a8.877 8.877 0 0 0 4.373 2.341v-1.306a8.6 8.6 0 0 1-1.544-.288 7.581 7.581 0 0 1-2.477-1.147 3.563 3.563 0 0 1-1.211-1.386 3.487 3.487 0 0 0 .859 1.79z" transform="translate(-349.512 -489.78)" style="fill:#fff"/>
            <path data-name="Path 49" d="M323.684 471.416a7.435 7.435 0 0 0 3.359-5.934c0-.515-.661-.965-1.1-.965-.623 0-.869.71-.869.836l.23.4c.054-.4.257-.437.471-.437s.322.147.322.366a6.586 6.586 0 0 1-1.361 2.765 14.527 14.527 0 0 1-2.207 2.2 7.873 7.873 0 0 0-2.389-.922l-.183.9a2.321 2.321 0 0 1 .627.257c.227.144.471.307.736.492a4.751 4.751 0 0 1-1.605.448l-.188.936a6.9 6.9 0 0 0 2.793-.6 9.917 9.917 0 0 1 3.588 5.178.594.594 0 0 0 .6.471c.113 0 .154-.273.154-.635a6.65 6.65 0 0 0-.358-2.058 8.442 8.442 0 0 0-2.626-3.7z" transform="translate(-317.156 -464.517)" style="fill:#fff"/>
            <path data-name="Path 50" d="M312.611 486.6c-.2 0-1.69-.044-1.654-.664.034-.561 1.34-.6 1.6-.61h.1a2.037 2.037 0 0 1 .448.057l.183-.9-.072-.018h-.015a4.694 4.694 0 0 0-.691-.077 3.164 3.164 0 0 0-1.567.437 1.516 1.516 0 0 0-.641 1.127 1.346 1.346 0 0 0 .641 1.075 3.823 3.823 0 0 0 1.737.492l.187-.936a2.451 2.451 0 0 1-.244.023z" transform="translate(-310.294 -479.27)" style="fill:#fff"/>
            <path data-name="Path 51" d="M332.574 492.083a6.3 6.3 0 0 0-.823-.768 13.918 13.918 0 0 1-1.361.746s.733.669.962.916z" transform="translate(-325.223 -484.417)" style="fill:#fff"/>
            <path data-name="Path 52" d="M324.2 485.835a5.771 5.771 0 0 1-1.209.728 4.41 4.41 0 0 0-1.217-.7l.239-.9a8.2 8.2 0 0 1 2.187.877z" transform="translate(-318.82 -479.699)" style="fill:#fff"/>
            <path data-name="Path 53" d="M315.537 472.591c-.082-1.6-.144-2.616-.144-2.616l-.164-3.84a.638.638 0 0 0-.679-.614c-.349 0-.679.051-.7.347v1.253l.021.316v2.955c.015.859.015.9 0 1.978a3.686 3.686 0 0 0 1.667.216z" transform="translate(-312.938 -465.263)" style="fill:#fff"/>
        </g>
    </g>
</svg>
