<svg xmlns="http://www.w3.org/2000/svg" width="74.957" height="52.827" viewBox="0 0 74.957 52.827">
    <defs>
        <clipPath id="qv0mqp12ya">
            <path data-name="Path 1" d="m19.809 31.965-.059 11.966h6.1V29.18c-2.02.9-4.031 1.818-6.025 2.785" transform="translate(-19.75 -29.18)" style="fill:none"/>
        </clipPath>
        <clipPath id="v8rzzzvkob">
            <path data-name="Path 3" d="M16.737 3.71 5.638 27.667l-2.062 4.468-.438.926-1.573 3.416L0 39.893h4.645l4.207-8.415 2.087-4.106.429-.841 2.339-4.679 3.046-6.117v7.75l1.683-.841 1.489-.715c.269-.1.581-.252.959-.438.5-.252 1.128-.581 1.885-1V3.71z" transform="translate(0 -3.71)" style="fill:none"/>
        </clipPath>
        <clipPath id="ul00b29yyc">
            <path data-name="Path 5" d="M29.209 35.774a3.122 3.122 0 0 0-.841 2.163 2.852 2.852 0 0 0 .185 1.094 2.365 2.365 0 0 0 1.372 1.237 10.1 10.1 0 0 0 1.2.3 4.687 4.687 0 0 1 1.06.328.774.774 0 0 1 .236.2.623.623 0 0 1 .126.379c0 .488-.345.732-1.043.732a3.98 3.98 0 0 1-1.531-.337 11.6 11.6 0 0 1-1.523.194l-.84 1.586a7.439 7.439 0 0 0 3.79 1.094 6.942 6.942 0 0 0 1.557-.168 4.106 4.106 0 0 0 1.868-.917 3.063 3.063 0 0 0 1.069-2.2v-.269a2.617 2.617 0 0 0-.682-1.86l-.1-.109a3.9 3.9 0 0 0-1.927-.841 5.941 5.941 0 0 1-1.035-.32q-.4-.194-.4-.5c0-.463.337-.69 1-.69a3.871 3.871 0 0 1 1.775.488l1.144-2.179a8.2 8.2 0 0 0-3.08-.581 4.392 4.392 0 0 0-3.366 1.178" transform="translate(-27.61 -34.573)" style="fill:none"/>
        </clipPath>
        <clipPath id="0ybtkvo2dd">
            <path data-name="Path 6" d="M38.15 34.32v10.156h3.366V39.1a1.977 1.977 0 0 1 .463-1.447 1.75 1.75 0 0 1 1.271-.5 1.4 1.4 0 0 1 1.245.6 3.206 3.206 0 0 1 .286 1.683v5.049h3.366v-6.303a4.443 4.443 0 0 0-.3-1.683 3.088 3.088 0 0 0-.791-1.119 3.2 3.2 0 0 0-1.456-.732 4.451 4.451 0 0 0-1-.109 3.492 3.492 0 0 0-3.055 1.388v-1.6z" transform="translate(-38.15 -34.32)" style="fill:none"/>
        </clipPath>
        <clipPath id="4vdz61cx6e">
            <path data-name="Path 7" d="M54.71 41.085a2.112 2.112 0 0 1 0-2.768 2.154 2.154 0 0 1 3.038-.227l.118.109a2.146 2.146 0 0 1 0 3.029 2.1 2.1 0 0 1-1.523.614 2.062 2.062 0 0 1-1.633-.742m3.669-6.513V35.9a3.888 3.888 0 0 0-1.043-.841 4.207 4.207 0 0 0-1.9-.37 5.672 5.672 0 0 0-.841.067 4.477 4.477 0 0 0-2.23 1.085 4.771 4.771 0 0 0-.841.951 5.1 5.1 0 0 0-.841 2.928 4.864 4.864 0 0 0 1.683 3.845 4.62 4.62 0 0 0 3.1 1.22 3.921 3.921 0 0 0 1.944-.463 3.441 3.441 0 0 0 .968-.841v1.3h3.366V34.58z" transform="translate(-50.677 -34.58)" style="fill:none"/>
        </clipPath>
        <clipPath id="clupb2zzyf">
            <path data-name="Path 8" d="M64.5 34.58v10.207h3.366v-5.528a1.977 1.977 0 0 1 .463-1.447A1.75 1.75 0 0 1 69.6 37.3a1.439 1.439 0 0 1 1.245.606 3.206 3.206 0 0 1 .286 1.683v5.2H74.5V38.3a3.517 3.517 0 0 0-1.085-2.777 3.711 3.711 0 0 0-2.524-.841 4.005 4.005 0 0 0-1.994.446 4.393 4.393 0 0 0-1.069.942v-1.49z" transform="translate(-64.5 -34.58)" style="fill:none"/>
        </clipPath>
    </defs>
    <g data-name="Group 469">
        <path data-name="Path 501" d="M744.375 520.587v16.564a.345.345 0 0 1-.215.372c-1.621.793-3.237 1.6-4.855 2.4-.3.148-.6.3-.925.462v-7.591l-.039-.01-5.721 11.416c.12-.062.188-.094.254-.132 2.766-1.629 5.593-3.146 8.506-4.494 2.537-1.174 4.914-2.64 7.36-3.978a12.4 12.4 0 0 0 2.813-1.933 7.347 7.347 0 0 0 2.3-4.015 11.5 11.5 0 0 0 .1-2.067c-.011-.917-.1-1.833-.116-2.75a3.352 3.352 0 0 1 .14-1.067c.281-.88.6-1.748.927-2.611a5.428 5.428 0 0 1 .472-.893c.062-.1.2-.152.3-.226a1.138 1.138 0 0 1 .112.345c-.005.377-.044.754-.059 1.132-.055 1.4-.058 2.8-.166 4.2a18.925 18.925 0 0 1-5.391 12.106 12.253 12.253 0 0 1-3.93 2.7c-4.293 1.881-8.558 3.822-12.671 6.079-.958.526-1.9 1.078-2.848 1.629a.731.731 0 0 0-.266.291q-2 3.97-3.984 7.949a.38.38 0 0 1-.4.245c-1.36-.01-2.721-.005-4.081-.005h-.3l1.515-3.284c-.039.008-.062.006-.076.016a28.048 28.048 0 0 0-5.794 5.91 10.586 10.586 0 0 0-1.869 4.12c-.1.5-.121 1-.187 1.506a1.1 1.1 0 0 0 .347.964c.3.289.642.53.969.788a2.246 2.246 0 0 0 .225.141 1.186 1.186 0 0 1 .622 1.545 3.849 3.849 0 0 1-.892 1.584 1.235 1.235 0 0 1-1.677.019 3.438 3.438 0 0 1-.935-2.319 14.041 14.041 0 0 1 .8-5.217 24.035 24.035 0 0 1 5.311-8.93 31.845 31.845 0 0 1 5.007-4.416.961.961 0 0 0 .3-.359q6.469-13.967 12.922-27.94a.365.365 0 0 1 .4-.249c1.8.009 3.606.005 5.41.005z" transform="translate(-713.926 -517.503)" style="fill:#ffc936"/>
        <g data-name="Group 2179">
            <g data-name="Group 2178">
                <g data-name="Group 1" transform="translate(24.317 24.545)" style="clip-path:url(#qv0mqp12ya)">
                    <path data-name="Rectangle 2" style="fill:#2c8eff" d="M0 0h6.075v14.717H0z" transform="translate(.008)"/>
                </g>
                <g data-name="Group 2" transform="translate(24.317 24.545)" style="clip-path:url(#qv0mqp12ya)">
                    <path data-name="Rectangle 3" style="fill:#2c8eff" d="M0 0h6.075v14.717H0z" transform="translate(.008)"/>
                </g>
                <g data-name="Group 3" transform="translate(7.698 3.113)" style="clip-path:url(#v8rzzzvkob)">
                    <path data-name="Rectangle 4" style="fill:#2c8eff" d="M0 0h22.703v36.175H0z" transform="translate(0 -.034)"/>
                </g>
                <g data-name="Group 4" transform="translate(7.698 3.113)" style="clip-path:url(#v8rzzzvkob)">
                    <path data-name="Rectangle 5" style="fill:#2c8eff" d="M0 0h22.703v36.175H0z" transform="translate(0 -.034)"/>
                </g>
                <g data-name="Group 5" transform="translate(30.931 29.083)" style="clip-path:url(#ul00b29yyc)">
                    <path data-name="Rectangle 6" style="fill:#2c8eff" d="M0 0h8.297v10.148H0z" transform="translate(.017 .031)"/>
                    <path data-name="Rectangle 7" style="fill:#2c8eff" d="M0 0h8.297v10.148H0z" transform="translate(.017 .031)"/>
                </g>
                <g data-name="Group 6" transform="translate(39.8 28.87)" style="clip-path:url(#0ybtkvo2dd)">
                    <path data-name="Rectangle 8" style="fill:#2c8eff" d="M0 0h10.013v10.165H0z" transform="translate(-.008)"/>
                    <path data-name="Rectangle 9" style="fill:#2c8eff" d="M0 0h10.013v10.165H0z" transform="translate(-.008)"/>
                </g>
                <g data-name="Group 7" transform="translate(50.341 29.089)" style="clip-path:url(#4vdz61cx6e)">
                    <path data-name="Rectangle 10" style="fill:#2c8eff" d="M0 0h11.074v10.165H0z" transform="translate(.011 .008)"/>
                    <path data-name="Rectangle 11" style="fill:#2c8eff" d="M0 0h11.074v10.165H0z" transform="translate(.011 .008)"/>
                </g>
                <g data-name="Group 8" transform="translate(61.972 29.089)" style="clip-path:url(#clupb2zzyf)">
                    <path data-name="Rectangle 12" style="fill:#2c8eff" d="M0 0h10.013v10.165H0z" transform="translate(0 .008)"/>
                    <path data-name="Rectangle 13" style="fill:#2c8eff" d="M0 0h10.013v10.165H0z" transform="translate(0 .008)"/>
                </g>
                <path data-name="Path 11" d="M76.21 3.77c-.076.74-.286 1.414-.37 2.154L75.419 9.4 74.4 19.455a17.856 17.856 0 0 1-2.693 7.573c-.126.151-.244.37-.446.4-.093-.177 0-.362 0-.539a26.5 26.5 0 0 0 .614-3.366l.673-7.245.513-5.453a31.353 31.353 0 0 1 2.726-7.018c.076-.093.151-.227.286-.252s.135.1.16.185" transform="translate(-3.593 -.573)" style="fill:#ffc936"/>
                <path data-name="Path 12" d="M53.588 7.386c.7 1.38-.353 2.609-1.052 3.7-.328.4-.7.9-1.22.993a8.5 8.5 0 0 1-1.565-.841l-1.439-.993c-.353-.488 0-1.06.185-1.548a22.2 22.2 0 0 1 1.683-3.028 1.212 1.212 0 0 1 .446-.429A3.858 3.858 0 0 1 53.6 7.411" transform="translate(.063 -.84)" style="fill:#ffc936"/>
                <path data-name="Path 13" d="M33.929 12.191c.648 1.279-.337 2.423-.985 3.433-.3.37-.648.841-1.128.926a6.454 6.454 0 0 1-1.456-.8l-1.338-.917c-.328-.454 0-.985.168-1.439a19.791 19.791 0 0 1 1.54-2.81 1.186 1.186 0 0 1 .412-.4 3.608 3.608 0 0 1 2.777 2.02" transform="translate(3.119 -1.623)" style="fill:#ffc936"/>
                <path data-name="Path 14" d="M63.951 12.2a.842.842 0 0 0-.269.269 13.9 13.9 0 0 1-.841 1.961 2.525 2.525 0 0 1-1.06 1.06.286.286 0 0 1-.143-.244.294.294 0 0 0-.311-.185c-.421.311-.539.791-.841 1.178a3 3 0 0 1-1.4 1.245c-.16 0-.185-.236-.311-.345s-.236 0-.32.042a18.942 18.942 0 0 1-1.683 1.8.48.48 0 0 1-.32.093 9.1 9.1 0 0 0-1.935-.337c-1.447.269-2.365 1.759-3.66 2.348-1.414.841-3.3.353-4.662-.252a5.293 5.293 0 0 1-2.28-3.6c-.572-3.568.185-7.077.673-10.451l.841-5.293.025-.959c0-.067 0-.185-.151-.16a.294.294 0 0 0-.15.13l-2.272 6.046-.732 4.5-.488 3.913c-.278 3.585-.892 7.927 1.069 10.939a3.9 3.9 0 0 0 3.433 1.784 7.464 7.464 0 0 0 1.885-.236c1.262-.311 2.188-1.683 2.844-2.676a3.206 3.206 0 0 1 2.979-1.725 4.561 4.561 0 0 0 2.911-1.456 7.573 7.573 0 0 1 2.592-1.582 8.019 8.019 0 0 0 2.2-1.961 3.854 3.854 0 0 0 1.363-1.405 10.005 10.005 0 0 0 1.22-4.207.21.21 0 0 0-.227-.177" transform="translate(1.143 -.067)" style="fill:#ffc936"/>
                <path data-name="Path 15" d="M35.8 3.119c0-.168-.219-.126-.295 0a10.939 10.939 0 0 0-1.2 2.7 5.89 5.89 0 0 0-.454 1.944c0 1.363.2 2.667.143 4.031-.084 2.937-2.524 5.554-5.049 6.732-1.927 1.06-3.366 1.9-4.578 2.524-.757.412-1.388.74-1.893 1-.37.185-.69.328-.951.438l-1.489.707-1.683.841q-2.945 1.506-5.8 3.2l-2.028 4.1c2.524-1.531 5.175-2.911 7.834-4.207 1.986-.976 4-1.893 6.016-2.794l2.673-1.135a10.569 10.569 0 0 0 2.524-1.683 19.118 19.118 0 0 0 6.076-13.332l.126-3.745a10.942 10.942 0 0 0 0-1.287" transform="translate(6.03 -.486)" style="fill:#ffc936"/>
                <path data-name="Path 16" d="M37.639 49.829h-6.378a1.153 1.153 0 0 0-1.261.984 1.531 1.531 0 0 0 0 .278v2.97a1.153 1.153 0 0 0 1 1.287 1.625 1.625 0 0 0 .286 0h6.378a1.153 1.153 0 0 0 1.287-1 1.626 1.626 0 0 0 0-.286v-2.946a1.153 1.153 0 0 0-1.01-1.279 1.532 1.532 0 0 0-.278 0m.656 4.207a.581.581 0 0 1-.5.656.513.513 0 0 1-.16 0h-6.4a.581.581 0 0 1-.656-.5.513.513 0 0 1 0-.16v-2.924a.581.581 0 0 1 .5-.648.454.454 0 0 1 .151 0h6.378a.581.581 0 0 1 .656.5.454.454 0 0 1 0 .151z" transform="translate(2.944 -7.907)" style="fill:#ffc936"/>
                <path data-name="Path 17" d="M50.222 54.079a.581.581 0 0 1-.438.7.64.64 0 0 1-.252 0h-1.868c-.648 0-.841-.227-.841-.227a1.464 1.464 0 0 1-.2-.917v-3.754h-.631v3.753a1.464 1.464 0 0 1-.2.917s-.151.227-.791.227h-1.822a.581.581 0 0 1-.648-.5.454.454 0 0 1 0-.151V49.83h-.623v4.249a1.153 1.153 0 0 0 1 1.287 1.532 1.532 0 0 0 .278 0H45.1a1.153 1.153 0 0 0 1.287-1.018 1.439 1.439 0 0 0 0-.269 1.153 1.153 0 0 0 1 1.287 1.532 1.532 0 0 0 .278 0h1.893a1.153 1.153 0 0 0 1.287-1 1.625 1.625 0 0 0 0-.286v-4.25h-.615z" transform="translate(1.055 -7.909)" style="fill:#ffc936"/>
                <path data-name="Path 18" d="M53.815 51.1v.2a1.153 1.153 0 0 0 .993 1.287h.286a1.153 1.153 0 0 0-1.3.993 1.507 1.507 0 0 0 0 .337v.185a1.153 1.153 0 0 0 1.01 1.287h7.956v-.64H55.1a.581.581 0 0 1-.656-.5.454.454 0 0 1 0-.151v-.185c0-.648.236-.841.236-.841a1.422 1.422 0 0 1 .968-.2H62.8v-.64h-7.151a1.38 1.38 0 0 1-.909-.2s-.236-.151-.236-.791v-.2a.581.581 0 0 1 .5-.648.454.454 0 0 1 .151 0H62.8v-.64h-7.7a1.153 1.153 0 0 0-1.285 1.047 1.531 1.531 0 0 0 0 .278" transform="translate(-.83 -7.896)" style="fill:#ffc936"/>
                <path data-name="Path 19" d="M18 50.471h4.207v4.9h.631v-4.9h4.207v-.631H18z" transform="translate(4.844 -7.91)" style="fill:#ffc936"/>
                <path data-name="Path 20" d="M77.438 58.778a5.655 5.655 0 0 0-1.38-2.188 15.7 15.7 0 0 0-3.366-2.407 28.69 28.69 0 0 0-1.952-.993h2.7a1.153 1.153 0 0 0 1.287-1 1.625 1.625 0 0 0 0-.286v-.757a1.153 1.153 0 0 0-1-1.287 1.624 1.624 0 0 0-.286 0H65.75v5.54h.631v-4.927h7.035a.581.581 0 0 1 .656.5.455.455 0 0 1 0 .151v.757a.581.581 0 0 1-.539.623h-4.367a1.245 1.245 0 0 0 .143.454.513.513 0 0 0 .059.118q.1.227.2.252a26.674 26.674 0 0 1 5.739 3.164c1.287 1 1.969 1.944 2.045 2.819a.421.421 0 0 1-.1.345 2.072 2.072 0 0 1-.37.286.185.185 0 0 0-.076.177.783.783 0 0 0 .143.4.4.4 0 0 0 .3.219c.151 0 .269-.093.345-.295a1.262 1.262 0 0 0 .084-.5 4.04 4.04 0 0 0-.236-1.262" transform="translate(-2.726 -7.912)" style="fill:#ffc936"/>
            </g>
            <path data-name="Path 1100" d="M72.946 1.685s-.707-.513-.244-.766 1.111 0 1.363-.067.74-.841-.4-.841-2.146.463-2 1.481 1.321.926 1.111 1.515-2.272.614-2.592.774-.7.623.841.555 2.7-.64 2.768-1.372-.847-1.279-.847-1.279z" transform="translate(-3.383 -.01)" style="fill:#ffc936"/>
        </g>
    </g>
</svg>
