<svg xmlns="http://www.w3.org/2000/svg" width="178.777" height="125.996" viewBox="0 0 178.777 125.996">
    <defs>
        <clipPath id="4f5qu0ttca">
            <path data-name="Path 1" d="m19.89 35.823-.14 28.539H34.3V29.18c-4.817 2.147-9.613 4.335-14.37 6.643" transform="translate(-19.75 -29.18)" style="fill:none"/>
        </clipPath>
        <clipPath id="j1hgw742rb">
            <path data-name="Path 3" d="M39.918 3.71 13.447 60.848 8.53 71.5l-1.044 2.212-3.753 8.149L0 90.009h11.078l10.035-20.07 4.977-9.794 1.024-2.007 5.579-11.158 7.265-14.591v18.484l4.014-2.007 3.552-1.706c.642-.241 1.385-.6 2.288-1.044 1.2-.6 2.689-1.385 4.5-2.388V3.71z" transform="translate(0 -3.71)" style="fill:none"/>
        </clipPath>
        <clipPath id="0a5vkqvpmc">
            <path data-name="Path 5" d="M31.423 37.437a7.446 7.446 0 0 0-2.007 5.163 6.8 6.8 0 0 0 .442 2.609 5.64 5.64 0 0 0 3.271 2.95 24.084 24.084 0 0 0 2.87.722 11.178 11.178 0 0 1 2.529.783 1.846 1.846 0 0 1 .562.482 1.485 1.485 0 0 1 .3.9c0 1.164-.823 1.746-2.489 1.746a9.493 9.493 0 0 1-3.653-.8 27.657 27.657 0 0 1-3.633.462l-2.005 3.768a17.741 17.741 0 0 0 9.031 2.609 16.556 16.556 0 0 0 3.713-.4 9.794 9.794 0 0 0 4.455-2.188 7.305 7.305 0 0 0 2.549-5.258v-.642a6.242 6.242 0 0 0-1.626-4.435l-.241-.261a9.312 9.312 0 0 0-4.6-2.007 14.17 14.17 0 0 1-2.469-.763q-.963-.462-.963-1.2c0-1.1.8-1.646 2.388-1.646a9.232 9.232 0 0 1 4.235 1.164l2.729-5.2a19.568 19.568 0 0 0-7.345-1.385 10.476 10.476 0 0 0-8.028 2.81" transform="translate(-27.61 -34.573)" style="fill:none"/>
        </clipPath>
        <clipPath id="03uzdwfv8d">
            <path data-name="Path 6" d="M38.15 34.32v24.224h8.028V45.719a4.716 4.716 0 0 1 1.1-3.452 4.174 4.174 0 0 1 3.03-1.2 3.332 3.332 0 0 1 2.97 1.425 7.646 7.646 0 0 1 .682 4.014v12.038h8.028V43.532a10.6 10.6 0 0 0-.723-4.014 7.366 7.366 0 0 0-1.887-2.669 7.626 7.626 0 0 0-3.467-1.749 10.616 10.616 0 0 0-2.388-.261 8.329 8.329 0 0 0-7.285 3.311v-3.81z" transform="translate(-38.15 -34.32)" style="fill:none"/>
        </clipPath>
        <clipPath id="ixwehnscae">
            <path data-name="Path 7" d="M60.3 50.094a5.037 5.037 0 0 1 0-6.6 5.138 5.138 0 0 1 7.245-.542l.281.261a5.118 5.118 0 0 1 0 7.225A5.017 5.017 0 0 1 64.19 51.9a4.917 4.917 0 0 1-3.89-1.766M69.047 34.6v3.131a9.272 9.272 0 0 0-2.489-2.007 10.035 10.035 0 0 0-4.536-.883 13.528 13.528 0 0 0-2.006.159 10.677 10.677 0 0 0-5.316 2.59 11.379 11.379 0 0 0-2.007 2.268 12.162 12.162 0 0 0-2.007 6.984 11.6 11.6 0 0 0 4.014 9.172 11.018 11.018 0 0 0 7.406 2.91 9.352 9.352 0 0 0 4.636-1.1 8.208 8.208 0 0 0 2.308-2.007v3.111h8.028V34.58z" transform="translate(-50.677 -34.58)" style="fill:none"/>
        </clipPath>
        <clipPath id="5ui2u1fspf">
            <path data-name="Path 8" d="M64.5 34.58v24.344h8.028V45.739a4.716 4.716 0 0 1 1.1-3.452 4.174 4.174 0 0 1 3.031-1.224 3.432 3.432 0 0 1 2.97 1.445 7.646 7.646 0 0 1 .682 4.014v12.4h8.028V43.451a8.389 8.389 0 0 0-2.589-6.623 8.851 8.851 0 0 0-6.021-2.007 9.553 9.553 0 0 0-4.756 1.064 10.476 10.476 0 0 0-2.549 2.248V34.58z" transform="translate(-64.5 -34.58)" style="fill:none"/>
        </clipPath>
    </defs>
    <g data-name="Group 34212">
        <g data-name="Group 469">
            <path data-name="Path 501" d="M786.548 521.35v.677q0 19.414.009 38.828a.824.824 0 0 1-.512.887c-3.867 1.891-7.721 3.807-11.578 5.718-.714.354-1.425.713-2.206 1.1v-18.103l-.092-.024-13.656 27.241c.285-.148.449-.224.6-.315 6.6-3.885 13.339-7.5 20.287-10.717 6.052-2.8 11.719-6.3 17.554-9.489a29.569 29.569 0 0 0 6.709-4.609 17.523 17.523 0 0 0 5.485-9.576 27.411 27.411 0 0 0 .249-4.931c-.027-2.187-.233-4.371-.276-6.559a7.989 7.989 0 0 1 .335-2.546c.67-2.1 1.429-4.169 2.211-6.228a12.93 12.93 0 0 1 1.127-2.13c.146-.238.477-.363.723-.54a2.713 2.713 0 0 1 .268.823c-.013.9-.106 1.8-.142 2.7-.131 3.338-.139 6.685-.4 10.013a45.137 45.137 0 0 1-12.843 28.875 29.223 29.223 0 0 1-9.374 6.434c-10.239 4.486-20.412 9.115-30.22 14.5-2.286 1.255-4.538 2.572-6.792 3.884a1.743 1.743 0 0 0-.634.694q-4.771 9.469-9.5 18.958a.906.906 0 0 1-.961.585c-3.245-.024-6.49-.012-9.734-.012h-.705l3.614-7.834c-.094.019-.149.015-.181.039a66.9 66.9 0 0 0-13.82 14.095 25.247 25.247 0 0 0-4.459 9.827c-.231 1.181-.289 2.4-.445 3.592a2.633 2.633 0 0 0 .828 2.3c.711.688 1.531 1.264 2.31 1.88a5.325 5.325 0 0 0 .536.336 2.827 2.827 0 0 1 1.484 3.685 9.179 9.179 0 0 1-2.128 3.778 2.946 2.946 0 0 1-4 .045 8.2 8.2 0 0 1-2.231-5.53 33.489 33.489 0 0 1 1.9-12.442 57.33 57.33 0 0 1 12.667-21.3 76 76 0 0 1 11.943-10.533 2.287 2.287 0 0 0 .711-.856q15.428-33.312 30.82-66.64a.871.871 0 0 1 .944-.593c4.3.021 8.6.012 12.9.012z" transform="translate(-713.926 -513.996)" style="fill:#ffc936"/>
            <g data-name="Group 2179">
                <g data-name="Group 2178">
                    <g data-name="Group 1" transform="translate(57.997 58.543)" style="clip-path:url(#4f5qu0ttca)">
                        <path data-name="Rectangle 2" style="fill:#2c8eff" d="M0 0h14.49v35.102H0z" transform="translate(.02)"/>
                    </g>
                    <g data-name="Group 2" transform="translate(57.997 58.543)" style="clip-path:url(#4f5qu0ttca)">
                        <path data-name="Rectangle 3" style="fill:#2c8eff" d="M0 0h14.49v35.102H0z" transform="translate(.02)"/>
                    </g>
                    <g data-name="Group 3" transform="translate(18.36 7.426)" style="clip-path:url(#j1hgw742rb)">
                        <path data-name="Rectangle 4" style="fill:#2c8eff" d="M0 0h54.148v86.279H0z" transform="translate(0 -.08)"/>
                    </g>
                    <g data-name="Group 4" transform="translate(18.36 7.426)" style="clip-path:url(#j1hgw742rb)">
                        <path data-name="Rectangle 5" style="fill:#2c8eff" d="M0 0h54.148v86.279H0z" transform="translate(0 -.08)"/>
                    </g>
                    <g data-name="Group 5" transform="translate(73.772 69.366)" style="clip-path:url(#0a5vkqvpmc)">
                        <path data-name="Rectangle 6" style="fill:#2c8eff" d="M0 0h19.789v24.204H0z" transform="translate(.04 .075)"/>
                        <path data-name="Rectangle 7" style="fill:#2c8eff" d="M0 0h19.789v24.204H0z" transform="translate(.04 .075)"/>
                    </g>
                    <g data-name="Group 6" transform="translate(94.925 68.858)" style="clip-path:url(#03uzdwfv8d)">
                        <path data-name="Rectangle 8" style="fill:#2c8eff" d="M0 0h23.883v24.244H0z" transform="translate(-.02)"/>
                        <path data-name="Rectangle 9" style="fill:#2c8eff" d="M0 0h23.883v24.244H0z" transform="translate(-.02)"/>
                    </g>
                    <g data-name="Group 7" transform="translate(120.066 69.38)" style="clip-path:url(#ixwehnscae)">
                        <path data-name="Rectangle 10" style="fill:#2c8eff" d="M0 0h26.411v24.244H0z" transform="translate(.027 .02)"/>
                        <path data-name="Rectangle 11" style="fill:#2c8eff" d="M0 0h26.411v24.244H0z" transform="translate(.027 .02)"/>
                    </g>
                    <g data-name="Group 8" transform="translate(147.808 69.38)" style="clip-path:url(#5ui2u1fspf)">
                        <path data-name="Rectangle 12" style="fill:#2c8eff" d="M0 0h23.883v24.244H0z" transform="translate(0 .02)"/>
                        <path data-name="Rectangle 13" style="fill:#2c8eff" d="M0 0h23.883v24.244H0z" transform="translate(0 .02)"/>
                    </g>
                    <path data-name="Path 11" d="M83.12 4.066c-.181 1.766-.682 3.372-.883 5.138l-1 8.289-2.432 23.982a42.588 42.588 0 0 1-6.422 18.063c-.3.361-.582.883-1.064.963-.221-.421 0-.863 0-1.284a63.217 63.217 0 0 0 1.465-8.028l1.606-17.28L75.614 20.9a74.779 74.779 0 0 1 6.5-16.738c.181-.221.361-.542.682-.6s.321.241.381.442" transform="translate(90.076 3.561)" style="fill:#ffc936"/>
                    <path data-name="Path 12" d="M61.1 10.358c1.666 3.291-.843 6.222-2.509 8.831-.783.943-1.666 2.147-2.91 2.368a20.271 20.271 0 0 1-3.733-2.007l-3.432-2.368c-.843-1.164 0-2.529.442-3.693a52.944 52.944 0 0 1 4.014-7.225A2.89 2.89 0 0 1 54.04 5.24c3.111 0 5.64 2.689 7.1 5.178" transform="translate(66.855 5.256)" style="fill:#ffc936"/>
                    <path data-name="Path 13" d="M40.918 14.977c1.545 3.051-.8 5.78-2.348 8.188-.723.883-1.545 2.007-2.689 2.208a15.393 15.393 0 0 1-3.472-1.907l-3.191-2.188c-.783-1.084 0-2.348.4-3.432a47.2 47.2 0 0 1 3.673-6.7 2.83 2.83 0 0 1 .983-.963c2.91 0 5.238 2.509 6.623 4.817" transform="translate(47.444 10.231)" style="fill:#ffc936"/>
                    <path data-name="Path 14" d="M95.26 28.592a2.007 2.007 0 0 0-.642.642 33.139 33.139 0 0 1-2.007 4.676 6.021 6.021 0 0 1-2.529 2.529.682.682 0 0 1-.341-.582.7.7 0 0 0-.741-.441c-1 .743-1.284 1.887-2.007 2.81A7.165 7.165 0 0 1 83.66 41.2c-.381 0-.442-.562-.743-.823s-.562 0-.763.1a45.177 45.177 0 0 1-4.014 4.295 1.144 1.144 0 0 1-.763.221 21.715 21.715 0 0 0-4.616-.8c-3.452.642-5.64 4.195-8.73 5.6-3.372 2.007-7.867.843-11.118-.6a12.624 12.624 0 0 1-5.439-8.59c-1.365-8.509.442-16.878 1.606-24.926l2.007-12.634.06-2.288c0-.161 0-.442-.361-.381a.7.7 0 0 0-.361.326l-5.419 14.41-1.746 10.732-1.16 9.333c-.662 8.55-2.127 18.905 2.549 26.09a9.312 9.312 0 0 0 8.188 4.255 17.8 17.8 0 0 0 4.5-.562c3.01-.743 5.218-4.014 6.784-6.382a7.647 7.647 0 0 1 7.1-4.114 10.878 10.878 0 0 0 6.944-3.472 18.063 18.063 0 0 1 6.181-3.773 19.126 19.126 0 0 0 5.234-4.677 9.192 9.192 0 0 0 3.251-3.352 23.863 23.863 0 0 0 2.91-10.035.5.5 0 0 0-.542-.421" transform="translate(59.994 .348)" style="fill:#ffc936"/>
                    <path data-name="Path 15" d="M70.809 3.273c0-.4-.522-.3-.7 0a26.09 26.09 0 0 0-2.87 6.442 14.049 14.049 0 0 0-1.084 4.636c0 3.251.482 6.362.341 9.613-.2 7-6.021 13.246-12.042 16.056-4.6 2.529-8.028 4.536-10.918 6.021a225.388 225.388 0 0 1-4.516 2.388c-.883.442-1.646.783-2.268 1.044L33.2 51.159l-4.014 2.007q-7.024 3.592-13.828 7.626l-4.838 9.774c6.021-3.653 12.343-6.944 18.685-10.035 4.736-2.328 9.533-4.516 14.35-6.663l6.382-2.709a25.208 25.208 0 0 0 6.021-4.014 45.6 45.6 0 0 0 14.49-31.79l.3-8.931a26.1 26.1 0 0 0 0-3.071" transform="translate(28.953 3.009)" style="fill:#ffc936"/>
                    <path data-name="Path 16" d="M48.234 49.838H33.021a2.75 2.75 0 0 0-3.01 2.348 3.653 3.653 0 0 0 0 .662v7.085A2.75 2.75 0 0 0 32.4 63a3.873 3.873 0 0 0 .682 0h15.212a2.75 2.75 0 0 0 3.071-2.388 3.876 3.876 0 0 0 0-.682v-7.022a2.75 2.75 0 0 0-2.408-3.051 3.654 3.654 0 0 0-.662 0m1.565 10.035a1.385 1.385 0 0 1-1.184 1.565 1.224 1.224 0 0 1-.381 0H33.021a1.385 1.385 0 0 1-1.565-1.184 1.224 1.224 0 0 1 0-.381v-6.984a1.385 1.385 0 0 1 1.2-1.545 1.083 1.083 0 0 1 .361 0h15.217a1.385 1.385 0 0 1 1.566 1.184 1.083 1.083 0 0 1 0 .361z" transform="translate(48.558 50.148)" style="fill:#ffc936"/>
                    <path data-name="Path 17" d="M61.75 59.965a1.385 1.385 0 0 1-1.044 1.666 1.525 1.525 0 0 1-.6 0h-4.458c-1.545 0-2.007-.542-2.007-.542a3.492 3.492 0 0 1-.481-2.189v-8.95h-1.505v8.95a3.492 3.492 0 0 1-.482 2.188s-.361.542-1.887.542h-4.335a1.385 1.385 0 0 1-1.545-1.2 1.084 1.084 0 0 1 0-.361V49.83h-1.485v10.135a2.75 2.75 0 0 0 2.388 3.071 3.654 3.654 0 0 0 .662 0h4.556a2.75 2.75 0 0 0 3.073-2.429 3.432 3.432 0 0 0 0-.642 2.75 2.75 0 0 0 2.388 3.071 3.654 3.654 0 0 0 .662 0h4.516a2.75 2.75 0 0 0 3.071-2.388 3.874 3.874 0 0 0 0-.682V49.83H61.77z" transform="translate(60.55 50.156)" style="fill:#ffc936"/>
                    <path data-name="Path 18" d="M53.851 52.981v.482a2.75 2.75 0 0 0 2.368 3.071h.681a2.75 2.75 0 0 0-3.089 2.366 3.593 3.593 0 0 0 0 .8v.442a2.75 2.75 0 0 0 2.408 3.071h18.966v-1.522H56.922a1.385 1.385 0 0 1-1.565-1.184 1.084 1.084 0 0 1 0-.361V59.7c0-1.545.562-2.007.562-2.007a3.392 3.392 0 0 1 2.308-.482h17.059v-1.52H58.227a3.291 3.291 0 0 1-2.167-.482s-.562-.361-.562-1.887v-.482A1.385 1.385 0 0 1 56.7 51.3a1.084 1.084 0 0 1 .361 0h18.225v-1.53H56.922a2.75 2.75 0 0 0-3.071 2.489 3.653 3.653 0 0 0 0 .662" transform="translate(72.523 50.075)" style="fill:#ffc936"/>
                    <path data-name="Path 19" d="M18 51.345h10.035v11.68h1.505v-11.68h10.035V49.84H18z" transform="translate(36.485 50.166)" style="fill:#ffc936"/>
                    <path data-name="Path 20" d="M93.627 71.141a13.487 13.487 0 0 0-3.291-5.218 37.449 37.449 0 0 0-8.028-5.74 69.704 69.704 0 0 0-4.656-2.368h6.442a2.75 2.75 0 0 0 3.071-2.388 3.875 3.875 0 0 0 0-.682v-1.807a2.749 2.749 0 0 0-2.388-3.071 3.873 3.873 0 0 0-.682 0H65.75v13.206h1.505v-11.74h16.778a1.385 1.385 0 0 1 1.567 1.184 1.085 1.085 0 0 1 0 .361v1.806a1.385 1.385 0 0 1-1.284 1.485H73.9a2.97 2.97 0 0 0 .341 1.084 1.224 1.224 0 0 0 .14.281q.241.542.482.6A63.62 63.62 0 0 1 88.55 65.68c3.071 2.388 4.7 4.636 4.877 6.723a1 1 0 0 1-.241.823 4.939 4.939 0 0 1-.883.682.441.441 0 0 0-.181.421 1.866 1.866 0 0 0 .341.963.943.943 0 0 0 .722.522c.361 0 .642-.221.823-.7a3.011 3.011 0 0 0 .2-1.184 9.634 9.634 0 0 0-.562-3.01" transform="translate(84.567 50.179)" style="fill:#ffc936"/>
                </g>
                <path data-name="Path 1100" d="M77.167 4s-1.686-1.224-.582-1.826 2.649 0 3.251-.161S81.6.01 78.893.01s-5.118 1.1-4.777 3.532 3.151 2.208 2.649 3.613S71.347 8.62 70.585 9s-1.666 1.485 2.007 1.325 6.442-1.525 6.6-3.271S77.167 4 77.167 4z" transform="translate(88.743 -.01)" style="fill:#ffc936"/>
            </g>
        </g>
    </g>
</svg>
