<svg xmlns="http://www.w3.org/2000/svg" width="1920" height="764" viewBox="0 0 1920 764">
    <defs>
        <clipPath id="j2osa7reqa">
            <path data-name="Rectangle 17156" style="fill:#fff" d="M0 0h1920v764H0z"/>
        </clipPath>
        <clipPath id="e9koi9kkyb">
            <path style="fill:none" d="M0 0h1162.497v1285.973H0z"/>
        </clipPath>
    </defs>
    <g data-name="Mask Group 163" style="clip-path:url(#j2osa7reqa)">
        <g data-name="Repeat Grid 17" transform="translate(757.503 -473.889)" style="opacity:.134;clip-path:url(#e9koi9kkyb)">
            <g data-name="Group 38417">
                <path data-name="Path 15" d="M227.71 3.962c0-1.446-1.88-1.085-2.53 0a93.988 93.988 0 0 0-10.339 23.208 50.61 50.61 0 0 0-3.9 16.7c0 11.713 1.735 22.919 1.229 34.632-.723 25.233-21.69 47.718-43.38 57.84-16.557 9.11-28.92 16.34-39.331 21.69a797.632 797.632 0 0 1-16.268 8.6 134.743 134.743 0 0 1-8.17 3.76l-12.8 6.073-14.46 7.23q-25.305 12.942-49.815 27.474L10.52 246.385c21.69-13.159 44.465-25.016 67.312-36.15 17.063-8.387 34.343-16.268 51.695-24l22.992-9.761a90.81 90.81 0 0 0 21.69-14.46 164.266 164.266 0 0 0 52.2-114.524l1.085-32.174a94 94 0 0 0 0-11.062" transform="translate(50.926 380.193)" style="fill:#d6dee0"/>
                <path data-name="Path 15" d="M227.71 3.962c0-1.446-1.88-1.085-2.53 0a93.988 93.988 0 0 0-10.339 23.208 50.61 50.61 0 0 0-3.9 16.7c0 11.713 1.735 22.919 1.229 34.632-.723 25.233-21.69 47.718-43.38 57.84-16.557 9.11-28.92 16.34-39.331 21.69a797.632 797.632 0 0 1-16.268 8.6 134.743 134.743 0 0 1-8.17 3.76l-12.8 6.073-14.46 7.23q-25.305 12.942-49.815 27.474L10.52 246.385c21.69-13.159 44.465-25.016 67.312-36.15 17.063-8.387 34.343-16.268 51.695-24l22.992-9.761a90.81 90.81 0 0 0 21.69-14.46 164.266 164.266 0 0 0 52.2-114.524l1.085-32.174a94 94 0 0 0 0-11.062" transform="translate(230.048 106.443)" style="fill:#d6dee0"/>
                <path data-name="Path 15" d="M423.059 4.82c0-2.747-3.571-2.06-4.807 0a178.526 178.526 0 0 0-19.637 44.08 96.128 96.128 0 0 0-7.415 31.726c0 22.247 3.3 43.534 2.335 65.781-1.373 47.928-41.2 90.638-82.4 109.864-31.449 17.3-54.932 31.037-74.708 41.2-12.36 6.729-22.659 12.085-30.9 16.342a256.34 256.34 0 0 1-15.518 7.141L165.7 332.489l-27.466 13.733Q90.171 370.8 43.617 398.407l-33.1 66.88c41.2-24.994 84.458-47.516 127.854-68.665 32.41-15.93 65.232-30.9 98.191-45.594l43.671-18.54a172.487 172.487 0 0 0 41.2-27.466 312.014 312.014 0 0 0 99.154-217.53l2.06-61.112a178.555 178.555 0 0 0 0-21.011" transform="translate(-10.52 270.742)" style="fill:#d6dee0"/>
                <path data-name="Path 15" d="M423.059 4.82c0-2.747-3.571-2.06-4.807 0a178.526 178.526 0 0 0-19.637 44.08 96.128 96.128 0 0 0-7.415 31.726c0 22.247 3.3 43.534 2.335 65.781-1.373 47.928-41.2 90.638-82.4 109.864-31.449 17.3-54.932 31.037-74.708 41.2-12.36 6.729-22.659 12.085-30.9 16.342a256.34 256.34 0 0 1-15.518 7.141L165.7 332.489l-27.466 13.733Q90.171 370.8 43.617 398.407l-33.1 66.88c41.2-24.994 84.458-47.516 127.854-68.665 32.41-15.93 65.232-30.9 98.191-45.594l43.671-18.54a172.487 172.487 0 0 0 41.2-27.466 312.014 312.014 0 0 0 99.154-217.53l2.06-61.112a178.555 178.555 0 0 0 0-21.011" transform="translate(168.601 -3.008)" style="fill:#d6dee0"/>
            </g>
            <g data-name="Group 38418">
                <path data-name="Path 15" d="M227.71 3.962c0-1.446-1.88-1.085-2.53 0a93.988 93.988 0 0 0-10.339 23.208 50.61 50.61 0 0 0-3.9 16.7c0 11.713 1.735 22.919 1.229 34.632-.723 25.233-21.69 47.718-43.38 57.84-16.557 9.11-28.92 16.34-39.331 21.69a797.632 797.632 0 0 1-16.268 8.6 134.743 134.743 0 0 1-8.17 3.76l-12.8 6.073-14.46 7.23q-25.305 12.942-49.815 27.474L10.52 246.385c21.69-13.159 44.465-25.016 67.312-36.15 17.063-8.387 34.343-16.268 51.695-24l22.992-9.761a90.81 90.81 0 0 0 21.69-14.46 164.266 164.266 0 0 0 52.2-114.524l1.085-32.174a94 94 0 0 0 0-11.062" transform="translate(298.926 380.193)" style="fill:#d6dee0"/>
                <path data-name="Path 15" d="M227.71 3.962c0-1.446-1.88-1.085-2.53 0a93.988 93.988 0 0 0-10.339 23.208 50.61 50.61 0 0 0-3.9 16.7c0 11.713 1.735 22.919 1.229 34.632-.723 25.233-21.69 47.718-43.38 57.84-16.557 9.11-28.92 16.34-39.331 21.69a797.632 797.632 0 0 1-16.268 8.6 134.743 134.743 0 0 1-8.17 3.76l-12.8 6.073-14.46 7.23q-25.305 12.942-49.815 27.474L10.52 246.385c21.69-13.159 44.465-25.016 67.312-36.15 17.063-8.387 34.343-16.268 51.695-24l22.992-9.761a90.81 90.81 0 0 0 21.69-14.46 164.266 164.266 0 0 0 52.2-114.524l1.085-32.174a94 94 0 0 0 0-11.062" transform="translate(478.048 106.443)" style="fill:#d6dee0"/>
                <path data-name="Path 15" d="M423.059 4.82c0-2.747-3.571-2.06-4.807 0a178.526 178.526 0 0 0-19.637 44.08 96.128 96.128 0 0 0-7.415 31.726c0 22.247 3.3 43.534 2.335 65.781-1.373 47.928-41.2 90.638-82.4 109.864-31.449 17.3-54.932 31.037-74.708 41.2-12.36 6.729-22.659 12.085-30.9 16.342a256.34 256.34 0 0 1-15.518 7.141L165.7 332.489l-27.466 13.733Q90.171 370.8 43.617 398.407l-33.1 66.88c41.2-24.994 84.458-47.516 127.854-68.665 32.41-15.93 65.232-30.9 98.191-45.594l43.671-18.54a172.487 172.487 0 0 0 41.2-27.466 312.014 312.014 0 0 0 99.154-217.53l2.06-61.112a178.555 178.555 0 0 0 0-21.011" transform="translate(237.48 270.742)" style="fill:#d6dee0"/>
                <path data-name="Path 15" d="M423.059 4.82c0-2.747-3.571-2.06-4.807 0a178.526 178.526 0 0 0-19.637 44.08 96.128 96.128 0 0 0-7.415 31.726c0 22.247 3.3 43.534 2.335 65.781-1.373 47.928-41.2 90.638-82.4 109.864-31.449 17.3-54.932 31.037-74.708 41.2-12.36 6.729-22.659 12.085-30.9 16.342a256.34 256.34 0 0 1-15.518 7.141L165.7 332.489l-27.466 13.733Q90.171 370.8 43.617 398.407l-33.1 66.88c41.2-24.994 84.458-47.516 127.854-68.665 32.41-15.93 65.232-30.9 98.191-45.594l43.671-18.54a172.487 172.487 0 0 0 41.2-27.466 312.014 312.014 0 0 0 99.154-217.53l2.06-61.112a178.555 178.555 0 0 0 0-21.011" transform="translate(416.601 -3.008)" style="fill:#d6dee0"/>
            </g>
            <g data-name="Group 38419">
                <path data-name="Path 15" d="M227.71 3.962c0-1.446-1.88-1.085-2.53 0a93.988 93.988 0 0 0-10.339 23.208 50.61 50.61 0 0 0-3.9 16.7c0 11.713 1.735 22.919 1.229 34.632-.723 25.233-21.69 47.718-43.38 57.84-16.557 9.11-28.92 16.34-39.331 21.69a797.632 797.632 0 0 1-16.268 8.6 134.743 134.743 0 0 1-8.17 3.76l-12.8 6.073-14.46 7.23q-25.305 12.942-49.815 27.474L10.52 246.385c21.69-13.159 44.465-25.016 67.312-36.15 17.063-8.387 34.343-16.268 51.695-24l22.992-9.761a90.81 90.81 0 0 0 21.69-14.46 164.266 164.266 0 0 0 52.2-114.524l1.085-32.174a94 94 0 0 0 0-11.062" transform="translate(546.926 380.193)" style="fill:#d6dee0"/>
                <path data-name="Path 15" d="M227.71 3.962c0-1.446-1.88-1.085-2.53 0a93.988 93.988 0 0 0-10.339 23.208 50.61 50.61 0 0 0-3.9 16.7c0 11.713 1.735 22.919 1.229 34.632-.723 25.233-21.69 47.718-43.38 57.84-16.557 9.11-28.92 16.34-39.331 21.69a797.632 797.632 0 0 1-16.268 8.6 134.743 134.743 0 0 1-8.17 3.76l-12.8 6.073-14.46 7.23q-25.305 12.942-49.815 27.474L10.52 246.385c21.69-13.159 44.465-25.016 67.312-36.15 17.063-8.387 34.343-16.268 51.695-24l22.992-9.761a90.81 90.81 0 0 0 21.69-14.46 164.266 164.266 0 0 0 52.2-114.524l1.085-32.174a94 94 0 0 0 0-11.062" transform="translate(726.048 106.443)" style="fill:#d6dee0"/>
                <path data-name="Path 15" d="M423.059 4.82c0-2.747-3.571-2.06-4.807 0a178.526 178.526 0 0 0-19.637 44.08 96.128 96.128 0 0 0-7.415 31.726c0 22.247 3.3 43.534 2.335 65.781-1.373 47.928-41.2 90.638-82.4 109.864-31.449 17.3-54.932 31.037-74.708 41.2-12.36 6.729-22.659 12.085-30.9 16.342a256.34 256.34 0 0 1-15.518 7.141L165.7 332.489l-27.466 13.733Q90.171 370.8 43.617 398.407l-33.1 66.88c41.2-24.994 84.458-47.516 127.854-68.665 32.41-15.93 65.232-30.9 98.191-45.594l43.671-18.54a172.487 172.487 0 0 0 41.2-27.466 312.014 312.014 0 0 0 99.154-217.53l2.06-61.112a178.555 178.555 0 0 0 0-21.011" transform="translate(485.48 270.742)" style="fill:#d6dee0"/>
                <path data-name="Path 15" d="M423.059 4.82c0-2.747-3.571-2.06-4.807 0a178.526 178.526 0 0 0-19.637 44.08 96.128 96.128 0 0 0-7.415 31.726c0 22.247 3.3 43.534 2.335 65.781-1.373 47.928-41.2 90.638-82.4 109.864-31.449 17.3-54.932 31.037-74.708 41.2-12.36 6.729-22.659 12.085-30.9 16.342a256.34 256.34 0 0 1-15.518 7.141L165.7 332.489l-27.466 13.733Q90.171 370.8 43.617 398.407l-33.1 66.88c41.2-24.994 84.458-47.516 127.854-68.665 32.41-15.93 65.232-30.9 98.191-45.594l43.671-18.54a172.487 172.487 0 0 0 41.2-27.466 312.014 312.014 0 0 0 99.154-217.53l2.06-61.112a178.555 178.555 0 0 0 0-21.011" transform="translate(664.601 -3.008)" style="fill:#d6dee0"/>
            </g>
            <g data-name="Group 38420">
                <path data-name="Path 15" d="M227.71 3.962c0-1.446-1.88-1.085-2.53 0a93.988 93.988 0 0 0-10.339 23.208 50.61 50.61 0 0 0-3.9 16.7c0 11.713 1.735 22.919 1.229 34.632-.723 25.233-21.69 47.718-43.38 57.84-16.557 9.11-28.92 16.34-39.331 21.69a797.632 797.632 0 0 1-16.268 8.6 134.743 134.743 0 0 1-8.17 3.76l-12.8 6.073-14.46 7.23q-25.305 12.942-49.815 27.474L10.52 246.385c21.69-13.159 44.465-25.016 67.312-36.15 17.063-8.387 34.343-16.268 51.695-24l22.992-9.761a90.81 90.81 0 0 0 21.69-14.46 164.266 164.266 0 0 0 52.2-114.524l1.085-32.174a94 94 0 0 0 0-11.062" transform="translate(794.926 380.193)" style="fill:#d6dee0"/>
                <path data-name="Path 15" d="M227.71 3.962c0-1.446-1.88-1.085-2.53 0a93.988 93.988 0 0 0-10.339 23.208 50.61 50.61 0 0 0-3.9 16.7c0 11.713 1.735 22.919 1.229 34.632-.723 25.233-21.69 47.718-43.38 57.84-16.557 9.11-28.92 16.34-39.331 21.69a797.632 797.632 0 0 1-16.268 8.6 134.743 134.743 0 0 1-8.17 3.76l-12.8 6.073-14.46 7.23q-25.305 12.942-49.815 27.474L10.52 246.385c21.69-13.159 44.465-25.016 67.312-36.15 17.063-8.387 34.343-16.268 51.695-24l22.992-9.761a90.81 90.81 0 0 0 21.69-14.46 164.266 164.266 0 0 0 52.2-114.524l1.085-32.174a94 94 0 0 0 0-11.062" transform="translate(974.048 106.443)" style="fill:#d6dee0"/>
                <path data-name="Path 15" d="M423.059 4.82c0-2.747-3.571-2.06-4.807 0a178.526 178.526 0 0 0-19.637 44.08 96.128 96.128 0 0 0-7.415 31.726c0 22.247 3.3 43.534 2.335 65.781-1.373 47.928-41.2 90.638-82.4 109.864-31.449 17.3-54.932 31.037-74.708 41.2-12.36 6.729-22.659 12.085-30.9 16.342a256.34 256.34 0 0 1-15.518 7.141L165.7 332.489l-27.466 13.733Q90.171 370.8 43.617 398.407l-33.1 66.88c41.2-24.994 84.458-47.516 127.854-68.665 32.41-15.93 65.232-30.9 98.191-45.594l43.671-18.54a172.487 172.487 0 0 0 41.2-27.466 312.014 312.014 0 0 0 99.154-217.53l2.06-61.112a178.555 178.555 0 0 0 0-21.011" transform="translate(733.48 270.742)" style="fill:#d6dee0"/>
                <path data-name="Path 15" d="M423.059 4.82c0-2.747-3.571-2.06-4.807 0a178.526 178.526 0 0 0-19.637 44.08 96.128 96.128 0 0 0-7.415 31.726c0 22.247 3.3 43.534 2.335 65.781-1.373 47.928-41.2 90.638-82.4 109.864-31.449 17.3-54.932 31.037-74.708 41.2-12.36 6.729-22.659 12.085-30.9 16.342a256.34 256.34 0 0 1-15.518 7.141L165.7 332.489l-27.466 13.733Q90.171 370.8 43.617 398.407l-33.1 66.88c41.2-24.994 84.458-47.516 127.854-68.665 32.41-15.93 65.232-30.9 98.191-45.594l43.671-18.54a172.487 172.487 0 0 0 41.2-27.466 312.014 312.014 0 0 0 99.154-217.53l2.06-61.112a178.555 178.555 0 0 0 0-21.011" transform="translate(912.601 -3.008)" style="fill:#d6dee0"/>
            </g>
            <g data-name="Group 38421">
                <path data-name="Path 15" d="M227.71 3.962c0-1.446-1.88-1.085-2.53 0a93.988 93.988 0 0 0-10.339 23.208 50.61 50.61 0 0 0-3.9 16.7c0 11.713 1.735 22.919 1.229 34.632-.723 25.233-21.69 47.718-43.38 57.84-16.557 9.11-28.92 16.34-39.331 21.69a797.632 797.632 0 0 1-16.268 8.6 134.743 134.743 0 0 1-8.17 3.76l-12.8 6.073-14.46 7.23q-25.305 12.942-49.815 27.474L10.52 246.385c21.69-13.159 44.465-25.016 67.312-36.15 17.063-8.387 34.343-16.268 51.695-24l22.992-9.761a90.81 90.81 0 0 0 21.69-14.46 164.266 164.266 0 0 0 52.2-114.524l1.085-32.174a94 94 0 0 0 0-11.062" transform="translate(1042.926 380.193)" style="fill:#d6dee0"/>
                <path data-name="Path 15" d="M227.71 3.962c0-1.446-1.88-1.085-2.53 0a93.988 93.988 0 0 0-10.339 23.208 50.61 50.61 0 0 0-3.9 16.7c0 11.713 1.735 22.919 1.229 34.632-.723 25.233-21.69 47.718-43.38 57.84-16.557 9.11-28.92 16.34-39.331 21.69a797.632 797.632 0 0 1-16.268 8.6 134.743 134.743 0 0 1-8.17 3.76l-12.8 6.073-14.46 7.23q-25.305 12.942-49.815 27.474L10.52 246.385c21.69-13.159 44.465-25.016 67.312-36.15 17.063-8.387 34.343-16.268 51.695-24l22.992-9.761a90.81 90.81 0 0 0 21.69-14.46 164.266 164.266 0 0 0 52.2-114.524l1.085-32.174a94 94 0 0 0 0-11.062" transform="translate(1222.048 106.443)" style="fill:#d6dee0"/>
                <path data-name="Path 15" d="M423.059 4.82c0-2.747-3.571-2.06-4.807 0a178.526 178.526 0 0 0-19.637 44.08 96.128 96.128 0 0 0-7.415 31.726c0 22.247 3.3 43.534 2.335 65.781-1.373 47.928-41.2 90.638-82.4 109.864-31.449 17.3-54.932 31.037-74.708 41.2-12.36 6.729-22.659 12.085-30.9 16.342a256.34 256.34 0 0 1-15.518 7.141L165.7 332.489l-27.466 13.733Q90.171 370.8 43.617 398.407l-33.1 66.88c41.2-24.994 84.458-47.516 127.854-68.665 32.41-15.93 65.232-30.9 98.191-45.594l43.671-18.54a172.487 172.487 0 0 0 41.2-27.466 312.014 312.014 0 0 0 99.154-217.53l2.06-61.112a178.555 178.555 0 0 0 0-21.011" transform="translate(981.48 270.742)" style="fill:#d6dee0"/>
                <path data-name="Path 15" d="M423.059 4.82c0-2.747-3.571-2.06-4.807 0a178.526 178.526 0 0 0-19.637 44.08 96.128 96.128 0 0 0-7.415 31.726c0 22.247 3.3 43.534 2.335 65.781-1.373 47.928-41.2 90.638-82.4 109.864-31.449 17.3-54.932 31.037-74.708 41.2-12.36 6.729-22.659 12.085-30.9 16.342a256.34 256.34 0 0 1-15.518 7.141L165.7 332.489l-27.466 13.733Q90.171 370.8 43.617 398.407l-33.1 66.88c41.2-24.994 84.458-47.516 127.854-68.665 32.41-15.93 65.232-30.9 98.191-45.594l43.671-18.54a172.487 172.487 0 0 0 41.2-27.466 312.014 312.014 0 0 0 99.154-217.53l2.06-61.112a178.555 178.555 0 0 0 0-21.011" transform="translate(1160.601 -3.008)" style="fill:#d6dee0"/>
            </g>
            <g data-name="Group 38427">
                <path data-name="Path 15" d="M227.71 3.962c0-1.446-1.88-1.085-2.53 0a93.988 93.988 0 0 0-10.339 23.208 50.61 50.61 0 0 0-3.9 16.7c0 11.713 1.735 22.919 1.229 34.632-.723 25.233-21.69 47.718-43.38 57.84-16.557 9.11-28.92 16.34-39.331 21.69a797.632 797.632 0 0 1-16.268 8.6 134.743 134.743 0 0 1-8.17 3.76l-12.8 6.073-14.46 7.23q-25.305 12.942-49.815 27.474L10.52 246.385c21.69-13.159 44.465-25.016 67.312-36.15 17.063-8.387 34.343-16.268 51.695-24l22.992-9.761a90.81 90.81 0 0 0 21.69-14.46 164.266 164.266 0 0 0 52.2-114.524l1.085-32.174a94 94 0 0 0 0-11.062" transform="translate(50.926 919.193)" style="fill:#d6dee0"/>
                <path data-name="Path 15" d="M227.71 3.962c0-1.446-1.88-1.085-2.53 0a93.988 93.988 0 0 0-10.339 23.208 50.61 50.61 0 0 0-3.9 16.7c0 11.713 1.735 22.919 1.229 34.632-.723 25.233-21.69 47.718-43.38 57.84-16.557 9.11-28.92 16.34-39.331 21.69a797.632 797.632 0 0 1-16.268 8.6 134.743 134.743 0 0 1-8.17 3.76l-12.8 6.073-14.46 7.23q-25.305 12.942-49.815 27.474L10.52 246.385c21.69-13.159 44.465-25.016 67.312-36.15 17.063-8.387 34.343-16.268 51.695-24l22.992-9.761a90.81 90.81 0 0 0 21.69-14.46 164.266 164.266 0 0 0 52.2-114.524l1.085-32.174a94 94 0 0 0 0-11.062" transform="translate(230.048 645.443)" style="fill:#d6dee0"/>
                <path data-name="Path 15" d="M423.059 4.82c0-2.747-3.571-2.06-4.807 0a178.526 178.526 0 0 0-19.637 44.08 96.128 96.128 0 0 0-7.415 31.726c0 22.247 3.3 43.534 2.335 65.781-1.373 47.928-41.2 90.638-82.4 109.864-31.449 17.3-54.932 31.037-74.708 41.2-12.36 6.729-22.659 12.085-30.9 16.342a256.34 256.34 0 0 1-15.518 7.141L165.7 332.489l-27.466 13.733Q90.171 370.8 43.617 398.407l-33.1 66.88c41.2-24.994 84.458-47.516 127.854-68.665 32.41-15.93 65.232-30.9 98.191-45.594l43.671-18.54a172.487 172.487 0 0 0 41.2-27.466 312.014 312.014 0 0 0 99.154-217.53l2.06-61.112a178.555 178.555 0 0 0 0-21.011" transform="translate(-10.52 809.742)" style="fill:#d6dee0"/>
                <path data-name="Path 15" d="M423.059 4.82c0-2.747-3.571-2.06-4.807 0a178.526 178.526 0 0 0-19.637 44.08 96.128 96.128 0 0 0-7.415 31.726c0 22.247 3.3 43.534 2.335 65.781-1.373 47.928-41.2 90.638-82.4 109.864-31.449 17.3-54.932 31.037-74.708 41.2-12.36 6.729-22.659 12.085-30.9 16.342a256.34 256.34 0 0 1-15.518 7.141L165.7 332.489l-27.466 13.733Q90.171 370.8 43.617 398.407l-33.1 66.88c41.2-24.994 84.458-47.516 127.854-68.665 32.41-15.93 65.232-30.9 98.191-45.594l43.671-18.54a172.487 172.487 0 0 0 41.2-27.466 312.014 312.014 0 0 0 99.154-217.53l2.06-61.112a178.555 178.555 0 0 0 0-21.011" transform="translate(168.601 535.992)" style="fill:#d6dee0"/>
            </g>
            <g data-name="Group 38428">
                <path data-name="Path 15" d="M227.71 3.962c0-1.446-1.88-1.085-2.53 0a93.988 93.988 0 0 0-10.339 23.208 50.61 50.61 0 0 0-3.9 16.7c0 11.713 1.735 22.919 1.229 34.632-.723 25.233-21.69 47.718-43.38 57.84-16.557 9.11-28.92 16.34-39.331 21.69a797.632 797.632 0 0 1-16.268 8.6 134.743 134.743 0 0 1-8.17 3.76l-12.8 6.073-14.46 7.23q-25.305 12.942-49.815 27.474L10.52 246.385c21.69-13.159 44.465-25.016 67.312-36.15 17.063-8.387 34.343-16.268 51.695-24l22.992-9.761a90.81 90.81 0 0 0 21.69-14.46 164.266 164.266 0 0 0 52.2-114.524l1.085-32.174a94 94 0 0 0 0-11.062" transform="translate(298.926 919.193)" style="fill:#d6dee0"/>
                <path data-name="Path 15" d="M227.71 3.962c0-1.446-1.88-1.085-2.53 0a93.988 93.988 0 0 0-10.339 23.208 50.61 50.61 0 0 0-3.9 16.7c0 11.713 1.735 22.919 1.229 34.632-.723 25.233-21.69 47.718-43.38 57.84-16.557 9.11-28.92 16.34-39.331 21.69a797.632 797.632 0 0 1-16.268 8.6 134.743 134.743 0 0 1-8.17 3.76l-12.8 6.073-14.46 7.23q-25.305 12.942-49.815 27.474L10.52 246.385c21.69-13.159 44.465-25.016 67.312-36.15 17.063-8.387 34.343-16.268 51.695-24l22.992-9.761a90.81 90.81 0 0 0 21.69-14.46 164.266 164.266 0 0 0 52.2-114.524l1.085-32.174a94 94 0 0 0 0-11.062" transform="translate(478.048 645.443)" style="fill:#d6dee0"/>
                <path data-name="Path 15" d="M423.059 4.82c0-2.747-3.571-2.06-4.807 0a178.526 178.526 0 0 0-19.637 44.08 96.128 96.128 0 0 0-7.415 31.726c0 22.247 3.3 43.534 2.335 65.781-1.373 47.928-41.2 90.638-82.4 109.864-31.449 17.3-54.932 31.037-74.708 41.2-12.36 6.729-22.659 12.085-30.9 16.342a256.34 256.34 0 0 1-15.518 7.141L165.7 332.489l-27.466 13.733Q90.171 370.8 43.617 398.407l-33.1 66.88c41.2-24.994 84.458-47.516 127.854-68.665 32.41-15.93 65.232-30.9 98.191-45.594l43.671-18.54a172.487 172.487 0 0 0 41.2-27.466 312.014 312.014 0 0 0 99.154-217.53l2.06-61.112a178.555 178.555 0 0 0 0-21.011" transform="translate(237.48 809.742)" style="fill:#d6dee0"/>
                <path data-name="Path 15" d="M423.059 4.82c0-2.747-3.571-2.06-4.807 0a178.526 178.526 0 0 0-19.637 44.08 96.128 96.128 0 0 0-7.415 31.726c0 22.247 3.3 43.534 2.335 65.781-1.373 47.928-41.2 90.638-82.4 109.864-31.449 17.3-54.932 31.037-74.708 41.2-12.36 6.729-22.659 12.085-30.9 16.342a256.34 256.34 0 0 1-15.518 7.141L165.7 332.489l-27.466 13.733Q90.171 370.8 43.617 398.407l-33.1 66.88c41.2-24.994 84.458-47.516 127.854-68.665 32.41-15.93 65.232-30.9 98.191-45.594l43.671-18.54a172.487 172.487 0 0 0 41.2-27.466 312.014 312.014 0 0 0 99.154-217.53l2.06-61.112a178.555 178.555 0 0 0 0-21.011" transform="translate(416.601 535.992)" style="fill:#d6dee0"/>
            </g>
            <g data-name="Group 38429">
                <path data-name="Path 15" d="M227.71 3.962c0-1.446-1.88-1.085-2.53 0a93.988 93.988 0 0 0-10.339 23.208 50.61 50.61 0 0 0-3.9 16.7c0 11.713 1.735 22.919 1.229 34.632-.723 25.233-21.69 47.718-43.38 57.84-16.557 9.11-28.92 16.34-39.331 21.69a797.632 797.632 0 0 1-16.268 8.6 134.743 134.743 0 0 1-8.17 3.76l-12.8 6.073-14.46 7.23q-25.305 12.942-49.815 27.474L10.52 246.385c21.69-13.159 44.465-25.016 67.312-36.15 17.063-8.387 34.343-16.268 51.695-24l22.992-9.761a90.81 90.81 0 0 0 21.69-14.46 164.266 164.266 0 0 0 52.2-114.524l1.085-32.174a94 94 0 0 0 0-11.062" transform="translate(546.926 919.193)" style="fill:#d6dee0"/>
                <path data-name="Path 15" d="M227.71 3.962c0-1.446-1.88-1.085-2.53 0a93.988 93.988 0 0 0-10.339 23.208 50.61 50.61 0 0 0-3.9 16.7c0 11.713 1.735 22.919 1.229 34.632-.723 25.233-21.69 47.718-43.38 57.84-16.557 9.11-28.92 16.34-39.331 21.69a797.632 797.632 0 0 1-16.268 8.6 134.743 134.743 0 0 1-8.17 3.76l-12.8 6.073-14.46 7.23q-25.305 12.942-49.815 27.474L10.52 246.385c21.69-13.159 44.465-25.016 67.312-36.15 17.063-8.387 34.343-16.268 51.695-24l22.992-9.761a90.81 90.81 0 0 0 21.69-14.46 164.266 164.266 0 0 0 52.2-114.524l1.085-32.174a94 94 0 0 0 0-11.062" transform="translate(726.048 645.443)" style="fill:#d6dee0"/>
                <path data-name="Path 15" d="M423.059 4.82c0-2.747-3.571-2.06-4.807 0a178.526 178.526 0 0 0-19.637 44.08 96.128 96.128 0 0 0-7.415 31.726c0 22.247 3.3 43.534 2.335 65.781-1.373 47.928-41.2 90.638-82.4 109.864-31.449 17.3-54.932 31.037-74.708 41.2-12.36 6.729-22.659 12.085-30.9 16.342a256.34 256.34 0 0 1-15.518 7.141L165.7 332.489l-27.466 13.733Q90.171 370.8 43.617 398.407l-33.1 66.88c41.2-24.994 84.458-47.516 127.854-68.665 32.41-15.93 65.232-30.9 98.191-45.594l43.671-18.54a172.487 172.487 0 0 0 41.2-27.466 312.014 312.014 0 0 0 99.154-217.53l2.06-61.112a178.555 178.555 0 0 0 0-21.011" transform="translate(485.48 809.742)" style="fill:#d6dee0"/>
                <path data-name="Path 15" d="M423.059 4.82c0-2.747-3.571-2.06-4.807 0a178.526 178.526 0 0 0-19.637 44.08 96.128 96.128 0 0 0-7.415 31.726c0 22.247 3.3 43.534 2.335 65.781-1.373 47.928-41.2 90.638-82.4 109.864-31.449 17.3-54.932 31.037-74.708 41.2-12.36 6.729-22.659 12.085-30.9 16.342a256.34 256.34 0 0 1-15.518 7.141L165.7 332.489l-27.466 13.733Q90.171 370.8 43.617 398.407l-33.1 66.88c41.2-24.994 84.458-47.516 127.854-68.665 32.41-15.93 65.232-30.9 98.191-45.594l43.671-18.54a172.487 172.487 0 0 0 41.2-27.466 312.014 312.014 0 0 0 99.154-217.53l2.06-61.112a178.555 178.555 0 0 0 0-21.011" transform="translate(664.601 535.992)" style="fill:#d6dee0"/>
            </g>
            <g data-name="Group 38430">
                <path data-name="Path 15" d="M227.71 3.962c0-1.446-1.88-1.085-2.53 0a93.988 93.988 0 0 0-10.339 23.208 50.61 50.61 0 0 0-3.9 16.7c0 11.713 1.735 22.919 1.229 34.632-.723 25.233-21.69 47.718-43.38 57.84-16.557 9.11-28.92 16.34-39.331 21.69a797.632 797.632 0 0 1-16.268 8.6 134.743 134.743 0 0 1-8.17 3.76l-12.8 6.073-14.46 7.23q-25.305 12.942-49.815 27.474L10.52 246.385c21.69-13.159 44.465-25.016 67.312-36.15 17.063-8.387 34.343-16.268 51.695-24l22.992-9.761a90.81 90.81 0 0 0 21.69-14.46 164.266 164.266 0 0 0 52.2-114.524l1.085-32.174a94 94 0 0 0 0-11.062" transform="translate(794.926 919.193)" style="fill:#d6dee0"/>
                <path data-name="Path 15" d="M227.71 3.962c0-1.446-1.88-1.085-2.53 0a93.988 93.988 0 0 0-10.339 23.208 50.61 50.61 0 0 0-3.9 16.7c0 11.713 1.735 22.919 1.229 34.632-.723 25.233-21.69 47.718-43.38 57.84-16.557 9.11-28.92 16.34-39.331 21.69a797.632 797.632 0 0 1-16.268 8.6 134.743 134.743 0 0 1-8.17 3.76l-12.8 6.073-14.46 7.23q-25.305 12.942-49.815 27.474L10.52 246.385c21.69-13.159 44.465-25.016 67.312-36.15 17.063-8.387 34.343-16.268 51.695-24l22.992-9.761a90.81 90.81 0 0 0 21.69-14.46 164.266 164.266 0 0 0 52.2-114.524l1.085-32.174a94 94 0 0 0 0-11.062" transform="translate(974.048 645.443)" style="fill:#d6dee0"/>
                <path data-name="Path 15" d="M423.059 4.82c0-2.747-3.571-2.06-4.807 0a178.526 178.526 0 0 0-19.637 44.08 96.128 96.128 0 0 0-7.415 31.726c0 22.247 3.3 43.534 2.335 65.781-1.373 47.928-41.2 90.638-82.4 109.864-31.449 17.3-54.932 31.037-74.708 41.2-12.36 6.729-22.659 12.085-30.9 16.342a256.34 256.34 0 0 1-15.518 7.141L165.7 332.489l-27.466 13.733Q90.171 370.8 43.617 398.407l-33.1 66.88c41.2-24.994 84.458-47.516 127.854-68.665 32.41-15.93 65.232-30.9 98.191-45.594l43.671-18.54a172.487 172.487 0 0 0 41.2-27.466 312.014 312.014 0 0 0 99.154-217.53l2.06-61.112a178.555 178.555 0 0 0 0-21.011" transform="translate(733.48 809.742)" style="fill:#d6dee0"/>
                <path data-name="Path 15" d="M423.059 4.82c0-2.747-3.571-2.06-4.807 0a178.526 178.526 0 0 0-19.637 44.08 96.128 96.128 0 0 0-7.415 31.726c0 22.247 3.3 43.534 2.335 65.781-1.373 47.928-41.2 90.638-82.4 109.864-31.449 17.3-54.932 31.037-74.708 41.2-12.36 6.729-22.659 12.085-30.9 16.342a256.34 256.34 0 0 1-15.518 7.141L165.7 332.489l-27.466 13.733Q90.171 370.8 43.617 398.407l-33.1 66.88c41.2-24.994 84.458-47.516 127.854-68.665 32.41-15.93 65.232-30.9 98.191-45.594l43.671-18.54a172.487 172.487 0 0 0 41.2-27.466 312.014 312.014 0 0 0 99.154-217.53l2.06-61.112a178.555 178.555 0 0 0 0-21.011" transform="translate(912.601 535.992)" style="fill:#d6dee0"/>
            </g>
            <g data-name="Group 38431">
                <path data-name="Path 15" d="M227.71 3.962c0-1.446-1.88-1.085-2.53 0a93.988 93.988 0 0 0-10.339 23.208 50.61 50.61 0 0 0-3.9 16.7c0 11.713 1.735 22.919 1.229 34.632-.723 25.233-21.69 47.718-43.38 57.84-16.557 9.11-28.92 16.34-39.331 21.69a797.632 797.632 0 0 1-16.268 8.6 134.743 134.743 0 0 1-8.17 3.76l-12.8 6.073-14.46 7.23q-25.305 12.942-49.815 27.474L10.52 246.385c21.69-13.159 44.465-25.016 67.312-36.15 17.063-8.387 34.343-16.268 51.695-24l22.992-9.761a90.81 90.81 0 0 0 21.69-14.46 164.266 164.266 0 0 0 52.2-114.524l1.085-32.174a94 94 0 0 0 0-11.062" transform="translate(1042.926 919.193)" style="fill:#d6dee0"/>
                <path data-name="Path 15" d="M227.71 3.962c0-1.446-1.88-1.085-2.53 0a93.988 93.988 0 0 0-10.339 23.208 50.61 50.61 0 0 0-3.9 16.7c0 11.713 1.735 22.919 1.229 34.632-.723 25.233-21.69 47.718-43.38 57.84-16.557 9.11-28.92 16.34-39.331 21.69a797.632 797.632 0 0 1-16.268 8.6 134.743 134.743 0 0 1-8.17 3.76l-12.8 6.073-14.46 7.23q-25.305 12.942-49.815 27.474L10.52 246.385c21.69-13.159 44.465-25.016 67.312-36.15 17.063-8.387 34.343-16.268 51.695-24l22.992-9.761a90.81 90.81 0 0 0 21.69-14.46 164.266 164.266 0 0 0 52.2-114.524l1.085-32.174a94 94 0 0 0 0-11.062" transform="translate(1222.048 645.443)" style="fill:#d6dee0"/>
                <path data-name="Path 15" d="M423.059 4.82c0-2.747-3.571-2.06-4.807 0a178.526 178.526 0 0 0-19.637 44.08 96.128 96.128 0 0 0-7.415 31.726c0 22.247 3.3 43.534 2.335 65.781-1.373 47.928-41.2 90.638-82.4 109.864-31.449 17.3-54.932 31.037-74.708 41.2-12.36 6.729-22.659 12.085-30.9 16.342a256.34 256.34 0 0 1-15.518 7.141L165.7 332.489l-27.466 13.733Q90.171 370.8 43.617 398.407l-33.1 66.88c41.2-24.994 84.458-47.516 127.854-68.665 32.41-15.93 65.232-30.9 98.191-45.594l43.671-18.54a172.487 172.487 0 0 0 41.2-27.466 312.014 312.014 0 0 0 99.154-217.53l2.06-61.112a178.555 178.555 0 0 0 0-21.011" transform="translate(981.48 809.742)" style="fill:#d6dee0"/>
                <path data-name="Path 15" d="M423.059 4.82c0-2.747-3.571-2.06-4.807 0a178.526 178.526 0 0 0-19.637 44.08 96.128 96.128 0 0 0-7.415 31.726c0 22.247 3.3 43.534 2.335 65.781-1.373 47.928-41.2 90.638-82.4 109.864-31.449 17.3-54.932 31.037-74.708 41.2-12.36 6.729-22.659 12.085-30.9 16.342a256.34 256.34 0 0 1-15.518 7.141L165.7 332.489l-27.466 13.733Q90.171 370.8 43.617 398.407l-33.1 66.88c41.2-24.994 84.458-47.516 127.854-68.665 32.41-15.93 65.232-30.9 98.191-45.594l43.671-18.54a172.487 172.487 0 0 0 41.2-27.466 312.014 312.014 0 0 0 99.154-217.53l2.06-61.112a178.555 178.555 0 0 0 0-21.011" transform="translate(1160.601 535.992)" style="fill:#d6dee0"/>
            </g>
            <g data-name="Group 38437">
                <path data-name="Path 15" d="M227.71 3.962c0-1.446-1.88-1.085-2.53 0a93.988 93.988 0 0 0-10.339 23.208 50.61 50.61 0 0 0-3.9 16.7c0 11.713 1.735 22.919 1.229 34.632-.723 25.233-21.69 47.718-43.38 57.84-16.557 9.11-28.92 16.34-39.331 21.69a797.632 797.632 0 0 1-16.268 8.6 134.743 134.743 0 0 1-8.17 3.76l-12.8 6.073-14.46 7.23q-25.305 12.942-49.815 27.474L10.52 246.385c21.69-13.159 44.465-25.016 67.312-36.15 17.063-8.387 34.343-16.268 51.695-24l22.992-9.761a90.81 90.81 0 0 0 21.69-14.46 164.266 164.266 0 0 0 52.2-114.524l1.085-32.174a94 94 0 0 0 0-11.062" transform="translate(50.926 1458.193)" style="fill:#d6dee0"/>
                <path data-name="Path 15" d="M227.71 3.962c0-1.446-1.88-1.085-2.53 0a93.988 93.988 0 0 0-10.339 23.208 50.61 50.61 0 0 0-3.9 16.7c0 11.713 1.735 22.919 1.229 34.632-.723 25.233-21.69 47.718-43.38 57.84-16.557 9.11-28.92 16.34-39.331 21.69a797.632 797.632 0 0 1-16.268 8.6 134.743 134.743 0 0 1-8.17 3.76l-12.8 6.073-14.46 7.23q-25.305 12.942-49.815 27.474L10.52 246.385c21.69-13.159 44.465-25.016 67.312-36.15 17.063-8.387 34.343-16.268 51.695-24l22.992-9.761a90.81 90.81 0 0 0 21.69-14.46 164.266 164.266 0 0 0 52.2-114.524l1.085-32.174a94 94 0 0 0 0-11.062" transform="translate(230.048 1184.443)" style="fill:#d6dee0"/>
                <path data-name="Path 15" d="M423.059 4.82c0-2.747-3.571-2.06-4.807 0a178.526 178.526 0 0 0-19.637 44.08 96.128 96.128 0 0 0-7.415 31.726c0 22.247 3.3 43.534 2.335 65.781-1.373 47.928-41.2 90.638-82.4 109.864-31.449 17.3-54.932 31.037-74.708 41.2-12.36 6.729-22.659 12.085-30.9 16.342a256.34 256.34 0 0 1-15.518 7.141L165.7 332.489l-27.466 13.733Q90.171 370.8 43.617 398.407l-33.1 66.88c41.2-24.994 84.458-47.516 127.854-68.665 32.41-15.93 65.232-30.9 98.191-45.594l43.671-18.54a172.487 172.487 0 0 0 41.2-27.466 312.014 312.014 0 0 0 99.154-217.53l2.06-61.112a178.555 178.555 0 0 0 0-21.011" transform="translate(-10.52 1348.742)" style="fill:#d6dee0"/>
                <path data-name="Path 15" d="M423.059 4.82c0-2.747-3.571-2.06-4.807 0a178.526 178.526 0 0 0-19.637 44.08 96.128 96.128 0 0 0-7.415 31.726c0 22.247 3.3 43.534 2.335 65.781-1.373 47.928-41.2 90.638-82.4 109.864-31.449 17.3-54.932 31.037-74.708 41.2-12.36 6.729-22.659 12.085-30.9 16.342a256.34 256.34 0 0 1-15.518 7.141L165.7 332.489l-27.466 13.733Q90.171 370.8 43.617 398.407l-33.1 66.88c41.2-24.994 84.458-47.516 127.854-68.665 32.41-15.93 65.232-30.9 98.191-45.594l43.671-18.54a172.487 172.487 0 0 0 41.2-27.466 312.014 312.014 0 0 0 99.154-217.53l2.06-61.112a178.555 178.555 0 0 0 0-21.011" transform="translate(168.601 1074.992)" style="fill:#d6dee0"/>
            </g>
            <g data-name="Group 38438">
                <path data-name="Path 15" d="M227.71 3.962c0-1.446-1.88-1.085-2.53 0a93.988 93.988 0 0 0-10.339 23.208 50.61 50.61 0 0 0-3.9 16.7c0 11.713 1.735 22.919 1.229 34.632-.723 25.233-21.69 47.718-43.38 57.84-16.557 9.11-28.92 16.34-39.331 21.69a797.632 797.632 0 0 1-16.268 8.6 134.743 134.743 0 0 1-8.17 3.76l-12.8 6.073-14.46 7.23q-25.305 12.942-49.815 27.474L10.52 246.385c21.69-13.159 44.465-25.016 67.312-36.15 17.063-8.387 34.343-16.268 51.695-24l22.992-9.761a90.81 90.81 0 0 0 21.69-14.46 164.266 164.266 0 0 0 52.2-114.524l1.085-32.174a94 94 0 0 0 0-11.062" transform="translate(298.926 1458.193)" style="fill:#d6dee0"/>
                <path data-name="Path 15" d="M227.71 3.962c0-1.446-1.88-1.085-2.53 0a93.988 93.988 0 0 0-10.339 23.208 50.61 50.61 0 0 0-3.9 16.7c0 11.713 1.735 22.919 1.229 34.632-.723 25.233-21.69 47.718-43.38 57.84-16.557 9.11-28.92 16.34-39.331 21.69a797.632 797.632 0 0 1-16.268 8.6 134.743 134.743 0 0 1-8.17 3.76l-12.8 6.073-14.46 7.23q-25.305 12.942-49.815 27.474L10.52 246.385c21.69-13.159 44.465-25.016 67.312-36.15 17.063-8.387 34.343-16.268 51.695-24l22.992-9.761a90.81 90.81 0 0 0 21.69-14.46 164.266 164.266 0 0 0 52.2-114.524l1.085-32.174a94 94 0 0 0 0-11.062" transform="translate(478.048 1184.443)" style="fill:#d6dee0"/>
                <path data-name="Path 15" d="M423.059 4.82c0-2.747-3.571-2.06-4.807 0a178.526 178.526 0 0 0-19.637 44.08 96.128 96.128 0 0 0-7.415 31.726c0 22.247 3.3 43.534 2.335 65.781-1.373 47.928-41.2 90.638-82.4 109.864-31.449 17.3-54.932 31.037-74.708 41.2-12.36 6.729-22.659 12.085-30.9 16.342a256.34 256.34 0 0 1-15.518 7.141L165.7 332.489l-27.466 13.733Q90.171 370.8 43.617 398.407l-33.1 66.88c41.2-24.994 84.458-47.516 127.854-68.665 32.41-15.93 65.232-30.9 98.191-45.594l43.671-18.54a172.487 172.487 0 0 0 41.2-27.466 312.014 312.014 0 0 0 99.154-217.53l2.06-61.112a178.555 178.555 0 0 0 0-21.011" transform="translate(237.48 1348.742)" style="fill:#d6dee0"/>
                <path data-name="Path 15" d="M423.059 4.82c0-2.747-3.571-2.06-4.807 0a178.526 178.526 0 0 0-19.637 44.08 96.128 96.128 0 0 0-7.415 31.726c0 22.247 3.3 43.534 2.335 65.781-1.373 47.928-41.2 90.638-82.4 109.864-31.449 17.3-54.932 31.037-74.708 41.2-12.36 6.729-22.659 12.085-30.9 16.342a256.34 256.34 0 0 1-15.518 7.141L165.7 332.489l-27.466 13.733Q90.171 370.8 43.617 398.407l-33.1 66.88c41.2-24.994 84.458-47.516 127.854-68.665 32.41-15.93 65.232-30.9 98.191-45.594l43.671-18.54a172.487 172.487 0 0 0 41.2-27.466 312.014 312.014 0 0 0 99.154-217.53l2.06-61.112a178.555 178.555 0 0 0 0-21.011" transform="translate(416.601 1074.992)" style="fill:#d6dee0"/>
            </g>
            <g data-name="Group 38439">
                <path data-name="Path 15" d="M227.71 3.962c0-1.446-1.88-1.085-2.53 0a93.988 93.988 0 0 0-10.339 23.208 50.61 50.61 0 0 0-3.9 16.7c0 11.713 1.735 22.919 1.229 34.632-.723 25.233-21.69 47.718-43.38 57.84-16.557 9.11-28.92 16.34-39.331 21.69a797.632 797.632 0 0 1-16.268 8.6 134.743 134.743 0 0 1-8.17 3.76l-12.8 6.073-14.46 7.23q-25.305 12.942-49.815 27.474L10.52 246.385c21.69-13.159 44.465-25.016 67.312-36.15 17.063-8.387 34.343-16.268 51.695-24l22.992-9.761a90.81 90.81 0 0 0 21.69-14.46 164.266 164.266 0 0 0 52.2-114.524l1.085-32.174a94 94 0 0 0 0-11.062" transform="translate(546.926 1458.193)" style="fill:#d6dee0"/>
                <path data-name="Path 15" d="M227.71 3.962c0-1.446-1.88-1.085-2.53 0a93.988 93.988 0 0 0-10.339 23.208 50.61 50.61 0 0 0-3.9 16.7c0 11.713 1.735 22.919 1.229 34.632-.723 25.233-21.69 47.718-43.38 57.84-16.557 9.11-28.92 16.34-39.331 21.69a797.632 797.632 0 0 1-16.268 8.6 134.743 134.743 0 0 1-8.17 3.76l-12.8 6.073-14.46 7.23q-25.305 12.942-49.815 27.474L10.52 246.385c21.69-13.159 44.465-25.016 67.312-36.15 17.063-8.387 34.343-16.268 51.695-24l22.992-9.761a90.81 90.81 0 0 0 21.69-14.46 164.266 164.266 0 0 0 52.2-114.524l1.085-32.174a94 94 0 0 0 0-11.062" transform="translate(726.048 1184.443)" style="fill:#d6dee0"/>
                <path data-name="Path 15" d="M423.059 4.82c0-2.747-3.571-2.06-4.807 0a178.526 178.526 0 0 0-19.637 44.08 96.128 96.128 0 0 0-7.415 31.726c0 22.247 3.3 43.534 2.335 65.781-1.373 47.928-41.2 90.638-82.4 109.864-31.449 17.3-54.932 31.037-74.708 41.2-12.36 6.729-22.659 12.085-30.9 16.342a256.34 256.34 0 0 1-15.518 7.141L165.7 332.489l-27.466 13.733Q90.171 370.8 43.617 398.407l-33.1 66.88c41.2-24.994 84.458-47.516 127.854-68.665 32.41-15.93 65.232-30.9 98.191-45.594l43.671-18.54a172.487 172.487 0 0 0 41.2-27.466 312.014 312.014 0 0 0 99.154-217.53l2.06-61.112a178.555 178.555 0 0 0 0-21.011" transform="translate(485.48 1348.742)" style="fill:#d6dee0"/>
                <path data-name="Path 15" d="M423.059 4.82c0-2.747-3.571-2.06-4.807 0a178.526 178.526 0 0 0-19.637 44.08 96.128 96.128 0 0 0-7.415 31.726c0 22.247 3.3 43.534 2.335 65.781-1.373 47.928-41.2 90.638-82.4 109.864-31.449 17.3-54.932 31.037-74.708 41.2-12.36 6.729-22.659 12.085-30.9 16.342a256.34 256.34 0 0 1-15.518 7.141L165.7 332.489l-27.466 13.733Q90.171 370.8 43.617 398.407l-33.1 66.88c41.2-24.994 84.458-47.516 127.854-68.665 32.41-15.93 65.232-30.9 98.191-45.594l43.671-18.54a172.487 172.487 0 0 0 41.2-27.466 312.014 312.014 0 0 0 99.154-217.53l2.06-61.112a178.555 178.555 0 0 0 0-21.011" transform="translate(664.601 1074.992)" style="fill:#d6dee0"/>
            </g>
            <g data-name="Group 38440">
                <path data-name="Path 15" d="M227.71 3.962c0-1.446-1.88-1.085-2.53 0a93.988 93.988 0 0 0-10.339 23.208 50.61 50.61 0 0 0-3.9 16.7c0 11.713 1.735 22.919 1.229 34.632-.723 25.233-21.69 47.718-43.38 57.84-16.557 9.11-28.92 16.34-39.331 21.69a797.632 797.632 0 0 1-16.268 8.6 134.743 134.743 0 0 1-8.17 3.76l-12.8 6.073-14.46 7.23q-25.305 12.942-49.815 27.474L10.52 246.385c21.69-13.159 44.465-25.016 67.312-36.15 17.063-8.387 34.343-16.268 51.695-24l22.992-9.761a90.81 90.81 0 0 0 21.69-14.46 164.266 164.266 0 0 0 52.2-114.524l1.085-32.174a94 94 0 0 0 0-11.062" transform="translate(794.926 1458.193)" style="fill:#d6dee0"/>
                <path data-name="Path 15" d="M227.71 3.962c0-1.446-1.88-1.085-2.53 0a93.988 93.988 0 0 0-10.339 23.208 50.61 50.61 0 0 0-3.9 16.7c0 11.713 1.735 22.919 1.229 34.632-.723 25.233-21.69 47.718-43.38 57.84-16.557 9.11-28.92 16.34-39.331 21.69a797.632 797.632 0 0 1-16.268 8.6 134.743 134.743 0 0 1-8.17 3.76l-12.8 6.073-14.46 7.23q-25.305 12.942-49.815 27.474L10.52 246.385c21.69-13.159 44.465-25.016 67.312-36.15 17.063-8.387 34.343-16.268 51.695-24l22.992-9.761a90.81 90.81 0 0 0 21.69-14.46 164.266 164.266 0 0 0 52.2-114.524l1.085-32.174a94 94 0 0 0 0-11.062" transform="translate(974.048 1184.443)" style="fill:#d6dee0"/>
                <path data-name="Path 15" d="M423.059 4.82c0-2.747-3.571-2.06-4.807 0a178.526 178.526 0 0 0-19.637 44.08 96.128 96.128 0 0 0-7.415 31.726c0 22.247 3.3 43.534 2.335 65.781-1.373 47.928-41.2 90.638-82.4 109.864-31.449 17.3-54.932 31.037-74.708 41.2-12.36 6.729-22.659 12.085-30.9 16.342a256.34 256.34 0 0 1-15.518 7.141L165.7 332.489l-27.466 13.733Q90.171 370.8 43.617 398.407l-33.1 66.88c41.2-24.994 84.458-47.516 127.854-68.665 32.41-15.93 65.232-30.9 98.191-45.594l43.671-18.54a172.487 172.487 0 0 0 41.2-27.466 312.014 312.014 0 0 0 99.154-217.53l2.06-61.112a178.555 178.555 0 0 0 0-21.011" transform="translate(733.48 1348.742)" style="fill:#d6dee0"/>
                <path data-name="Path 15" d="M423.059 4.82c0-2.747-3.571-2.06-4.807 0a178.526 178.526 0 0 0-19.637 44.08 96.128 96.128 0 0 0-7.415 31.726c0 22.247 3.3 43.534 2.335 65.781-1.373 47.928-41.2 90.638-82.4 109.864-31.449 17.3-54.932 31.037-74.708 41.2-12.36 6.729-22.659 12.085-30.9 16.342a256.34 256.34 0 0 1-15.518 7.141L165.7 332.489l-27.466 13.733Q90.171 370.8 43.617 398.407l-33.1 66.88c41.2-24.994 84.458-47.516 127.854-68.665 32.41-15.93 65.232-30.9 98.191-45.594l43.671-18.54a172.487 172.487 0 0 0 41.2-27.466 312.014 312.014 0 0 0 99.154-217.53l2.06-61.112a178.555 178.555 0 0 0 0-21.011" transform="translate(912.601 1074.992)" style="fill:#d6dee0"/>
            </g>
            <g data-name="Group 38441">
                <path data-name="Path 15" d="M227.71 3.962c0-1.446-1.88-1.085-2.53 0a93.988 93.988 0 0 0-10.339 23.208 50.61 50.61 0 0 0-3.9 16.7c0 11.713 1.735 22.919 1.229 34.632-.723 25.233-21.69 47.718-43.38 57.84-16.557 9.11-28.92 16.34-39.331 21.69a797.632 797.632 0 0 1-16.268 8.6 134.743 134.743 0 0 1-8.17 3.76l-12.8 6.073-14.46 7.23q-25.305 12.942-49.815 27.474L10.52 246.385c21.69-13.159 44.465-25.016 67.312-36.15 17.063-8.387 34.343-16.268 51.695-24l22.992-9.761a90.81 90.81 0 0 0 21.69-14.46 164.266 164.266 0 0 0 52.2-114.524l1.085-32.174a94 94 0 0 0 0-11.062" transform="translate(1042.926 1458.193)" style="fill:#d6dee0"/>
                <path data-name="Path 15" d="M227.71 3.962c0-1.446-1.88-1.085-2.53 0a93.988 93.988 0 0 0-10.339 23.208 50.61 50.61 0 0 0-3.9 16.7c0 11.713 1.735 22.919 1.229 34.632-.723 25.233-21.69 47.718-43.38 57.84-16.557 9.11-28.92 16.34-39.331 21.69a797.632 797.632 0 0 1-16.268 8.6 134.743 134.743 0 0 1-8.17 3.76l-12.8 6.073-14.46 7.23q-25.305 12.942-49.815 27.474L10.52 246.385c21.69-13.159 44.465-25.016 67.312-36.15 17.063-8.387 34.343-16.268 51.695-24l22.992-9.761a90.81 90.81 0 0 0 21.69-14.46 164.266 164.266 0 0 0 52.2-114.524l1.085-32.174a94 94 0 0 0 0-11.062" transform="translate(1222.048 1184.443)" style="fill:#d6dee0"/>
                <path data-name="Path 15" d="M423.059 4.82c0-2.747-3.571-2.06-4.807 0a178.526 178.526 0 0 0-19.637 44.08 96.128 96.128 0 0 0-7.415 31.726c0 22.247 3.3 43.534 2.335 65.781-1.373 47.928-41.2 90.638-82.4 109.864-31.449 17.3-54.932 31.037-74.708 41.2-12.36 6.729-22.659 12.085-30.9 16.342a256.34 256.34 0 0 1-15.518 7.141L165.7 332.489l-27.466 13.733Q90.171 370.8 43.617 398.407l-33.1 66.88c41.2-24.994 84.458-47.516 127.854-68.665 32.41-15.93 65.232-30.9 98.191-45.594l43.671-18.54a172.487 172.487 0 0 0 41.2-27.466 312.014 312.014 0 0 0 99.154-217.53l2.06-61.112a178.555 178.555 0 0 0 0-21.011" transform="translate(981.48 1348.742)" style="fill:#d6dee0"/>
                <path data-name="Path 15" d="M423.059 4.82c0-2.747-3.571-2.06-4.807 0a178.526 178.526 0 0 0-19.637 44.08 96.128 96.128 0 0 0-7.415 31.726c0 22.247 3.3 43.534 2.335 65.781-1.373 47.928-41.2 90.638-82.4 109.864-31.449 17.3-54.932 31.037-74.708 41.2-12.36 6.729-22.659 12.085-30.9 16.342a256.34 256.34 0 0 1-15.518 7.141L165.7 332.489l-27.466 13.733Q90.171 370.8 43.617 398.407l-33.1 66.88c41.2-24.994 84.458-47.516 127.854-68.665 32.41-15.93 65.232-30.9 98.191-45.594l43.671-18.54a172.487 172.487 0 0 0 41.2-27.466 312.014 312.014 0 0 0 99.154-217.53l2.06-61.112a178.555 178.555 0 0 0 0-21.011" transform="translate(1160.601 1074.992)" style="fill:#d6dee0"/>
            </g>
        </g>
    </g>
</svg>
